<?xml version="1.0" encoding="UTF-8"?>
<!-- Uploaded to: SVG Find, www.svgrepo.com, Generator: SVG Find Mixer Tools -->
<svg fill="#000000" width="25px" height="23px" version="1.1" viewBox="144 144 512 512" xmlns="http://www.w3.org/2000/svg">
 <g>
  <path d="m602.39 396.64-30.039-9.4141c-2.4102-0.75391-5.0078-0.31641-7.0156 1.1641-2.0234 1.4805-3.2109 3.8398-3.2109 6.3438v28.34h-11.293v-39.156c0-4.3438-3.5273-7.8711-7.8711-7.8711h-43.156l-42.895-35.266c-1.4102-1.1562-3.1797-1.793-5-1.793h-34.645v-12.707h31.34c4.3438 0 7.8711-3.5273 7.8711-7.8711v-25.844c0-4.3438-3.5273-7.8711-7.8711-7.8711l-107.87-0.003907c-4.3438 0-7.8711 3.5273-7.8711 7.8711v25.844c0 4.3438 3.5273 7.8711 7.8711 7.8711h31.34v12.707h-31.34c-2.2422 0-4.375 0.95312-5.8633 2.6211l-31.605 35.328h-35.242c-4.3438 0-7.8711 3.5273-7.8711 7.8711v17.973h-11.305v-17.973c0-4.3438-3.5273-7.8711-7.8711-7.8711h-41.012c-4.3438 0-7.8711 3.5273-7.8711 7.8711v35.156c0 4.3438 3.5273 7.8711 7.8711 7.8711h8.7383v53.844c0 4.3438 3.5273 7.8711 7.8711 7.8711h24.402c4.3438 0 7.8711-3.5273 7.8711-7.8711v-33.715h11.305v33.715c0 4.3438 3.5273 7.8711 7.8711 7.8711h41.684l24.418 37.863c1.4492 2.25 3.9375 3.6055 6.6133 3.6055l202.22 0.007813c4.3438 0 7.8711-3.5273 7.8711-7.8711v-54.898h11.297v44.074c0 2.5039 1.1875 4.8633 3.2109 6.3438 1.3633 1 3 1.5273 4.6602 1.5273 0.78906 0 1.582-0.11719 2.3555-0.36328l30.039-9.4141c3.2812-1.0234 5.5195-4.0703 5.5195-7.5117v-98.758c0.007812-3.4414-2.2266-6.4805-5.5195-7.5117zm-369.29 77.18h-8.6602v-53.844c0-4.3438-3.5273-7.8711-7.8711-7.8711h-8.7383v-19.414h25.27v81.129zm27.047-41.582h-11.305v-13.707h11.305zm88.457-121.7v-10.102h92.125v10.102zm52.918 15.746v11.305h-13.707v-11.305zm133.56 189h-190.06l-24.418-37.863c-1.4492-2.25-3.9375-3.6055-6.6133-3.6055h-38.102v-81.129h30.891c2.2422 0 4.375-0.95312 5.8633-2.6211l31.605-35.328h104.83l42.895 35.266c1.4102 1.1562 3.1797 1.793 5 1.793h38.102c0.007812 40.523 0.007812 86.418 0.007812 123.49zm27.039-62.773h-11.293v-13.707h11.297zm30.051 44.629-14.305 4.4805v-96.172l14.305 4.4805z"/>
  <path d="m456.56 411.9h-21.238l2.2422-19.09c0.26172-2.2344-0.44141-4.4727-1.9375-6.1484-1.4883-1.6758-3.6289-2.6367-5.8789-2.6367h-37.777c-3.9453 0-7.2812 2.9219-7.8008 6.8242l-7.1641 53.465c-0.30078 2.2578 0.38672 4.5273 1.8906 6.2344 1.4961 1.6992 3.6523 2.6758 5.9102 2.6758h0.023437l14.957-0.046874 1.418 35.465c0.13281 3.3867 2.418 6.2969 5.668 7.2422 0.72266 0.21094 1.4727 0.31641 2.1953 0.31641 2.5352 0 4.9766-1.2266 6.4727-3.3945l47.477-68.551c1.6602-2.4102 1.8594-5.543 0.49609-8.1328-1.3398-2.5938-4.0234-4.2227-6.9531-4.2227zm-40.555 52.598-0.78125-19.531c-0.16406-4.2188-3.6367-7.5586-7.8633-7.5586h-0.023437l-13.523 0.046875 5.0547-37.691h22.027l-2.2422 19.09c-0.26172 2.2344 0.44141 4.4727 1.9375 6.1484 1.4883 1.6758 3.6289 2.6367 5.8789 2.6367h15.066z"/>
 </g>
</svg>