<svg xmlns="http://www.w3.org/2000/svg" width="19" height="17" viewBox="0 0 24 20" fill="none">
												<path
													d="M20.0464 2.29271H16.7196V1.10938H15.3839V2.29271H8.73021V1.10938H7.39448V2.29271H4.06766C3.53793 2.29271 3.0299 2.48001 2.65532 2.81341C2.28075 3.14681 
													2.07031 3.59899 2.07031 4.07049V17.1094C2.07031 17.5809 2.28075 18.0331 2.65532 18.3665C3.0299 18.6999 3.53793 18.8872 4.06766 18.8872H20.0464C20.5761 
													18.8872 21.0842 18.6999 21.4587 18.3665C21.8333 18.0331 22.0438 17.5809 22.0438 17.1094V4.07049C22.0438 3.59899 21.8333 3.14681 21.4587 2.81341C21.0842 
													2.48001 20.5761 2.29271 20.0464 2.29271ZM4.06766 3.4816H7.39448V4.66493H8.72397V3.4816H15.3839V4.66493H16.7133V3.4816H20.0464C20.2235 3.4816 20.3934 
													3.54423 20.5187 3.65571C20.6439 3.76719 20.7143 3.91839 20.7143 4.07604V7.03715H3.39979V4.07049C3.40144 3.91379 3.47253 3.76402 3.5976 3.65374C3.72267 
													3.54346 3.8916 3.48159 4.06766 3.4816ZM20.0464 17.7038H4.06766C3.89053 17.7038 3.72066 17.6412 3.59541 17.5297C3.47016 17.4182 3.39979 17.267 3.39979 
													17.1094V8.22049H20.7143V17.1094C20.7143 17.267 20.6439 17.4182 20.5187 17.5297C20.3934 17.6412 20.2235 17.7038 20.0464 17.7038Z"
													fill="#181A20"
												/>
												<path
													d="M15.1397 11.8023L13.6042 11.2801L12.5744 10.1412C12.5117 10.0727 12.4327 10.0174 12.3431 9.97949C12.2535 9.94156 12.1555 9.92188 12.0563 9.92188C11.9571 
													9.92188 11.8591 9.94156 11.7695 9.97949C11.6798 10.0174 11.6009 10.0727 11.5382 10.1412L10.5083 11.2801L8.97289 11.8023C8.88037 11.8343 8.79703 11.8842 
													8.72892 11.9485C8.66081 12.0127 8.60965 12.0897 8.57916 12.1738C8.54868 12.2578 8.53962 12.3469 8.55267 12.4345C8.56571 12.5221 8.60052 12.606 8.65456 
													12.6801L9.55961 13.8912L9.64075 15.3523C9.64596 15.4408 9.67332 15.5271 9.72083 15.6049C9.76835 15.6828 9.83482 15.7502 9.91539 15.8023C9.99685 15.8535 
													10.0898 15.8884 10.1878 15.9047C10.2858 15.921 10.3866 15.9183 10.4834 15.8967L12.0563 15.5245L13.6417 15.9078C13.7387 15.9304 13.8401 15.9332 13.9385 
													15.9161C14.0369 15.8991 14.1297 15.8625 14.21 15.8091C14.2903 15.7558 14.3562 15.687 14.4026 15.6079C14.449 15.5288 14.4748 15.4414 14.4781 15.3523L14.553 
													13.8912L15.4518 12.6634C15.5058 12.5893 15.5406 12.5054 15.5537 12.4178C15.5667 12.3302 15.5577 12.2412 15.5272 12.1571C15.4967 12.073 15.4455 11.9961 
													15.3774 11.9318C15.3093 11.8675 15.226 11.8176 15.1334 11.7856L15.1397 11.8023ZM13.3483 13.3912C13.2844 13.4793 13.2478 13.5808 13.2422 13.6856L13.1923 
													14.5745L12.2311 14.3412C12.1166 14.3138 11.996 14.3138 11.8815 14.3412L10.9203 14.5745L10.8704 13.6856C10.8648 13.5808 10.8282 13.4793 10.7643 13.3912L10.2212 
													12.6467L11.1512 12.3301C11.2614 12.2921 11.3584 12.2289 11.4321 12.1467L12.0563 11.4523L12.6805 12.1467C12.7542 12.2289 12.8511 12.2921 12.9613 12.3301L13.8913 
													12.6467L13.3483 13.3912Z"
													fill="#181A20"
												/>
											</svg>