<?xml version="1.0" encoding="UTF-8"?>
<!-- Uploaded to: SVG Find, www.svgrepo.com, Generator: SVG Find Mixer Tools -->
<svg fill="#000000" width="800px" height="800px" version="1.1" viewBox="144 144 512 512" xmlns="http://www.w3.org/2000/svg">
 <g>
  <path d="m612.68 404.15c49.098 58.094 17.844 161.7-62.48 169.64-34.758 3.4336-69.492-20.074-77.715-54.59-2.9492 2.8555-5.6328 5.9688-8.0195 9.3086-0.49219 0.74219-1.2188 1.293-2.0664 1.5742-0.45312 0.32031-0.97266 0.54297-1.5195 0.64844-50.594 9.668-110.46 3.7109-156.83-18.98-6.957 13.59-15.031 26.715-29.293 33.547-12.867 6.1875-31.82 7.4531-46 6.9609-30.867-1.1094-54.457-17.711-61.188-48.84-7.0156-32.414-5.3633-73.926 15.742-101.26 17.922-23.223 45.797-32.77 74.238-31.199h0.003906c-1.5586-2.6836-2.707-5.5859-3.4062-8.6094-0.46094-1.8164 0.48438-3.6992 2.2227-4.4102 0.84766-1.3594 2.5312-1.9492 4.043-1.418 15.785 4.7695 29.52 13.719 43.812 21.648 1.7266-0.99609 3.6406-1.6289 5.6211-1.8555 5.4766-0.53125 10.996 0.21094 16.137 2.168-5.6211-5.5469-11.168-11.219-16.707-17.121-10.496-11.117-23.055-19.934-33.547-30.969-9.8398-10.391-17.848-22.691-26.922-33.777-6.9102-8.4336-2.0625-16.09-0.82422-25.527v-0.003906c0.125-0.97266 0.58984-1.8672 1.3164-2.5273 0.49219-1.5117 1.9141-2.5273 3.5078-2.5039 17.016-0.33594 39.27 1.5508 54.355 10.164 6.3008 3.957 11.98 8.8203 16.863 14.438 6.7539 7.0859 14.957 12.402 22.098 19.059h-0.003907c0.44141 0.40625 0.78516 0.91016 1.0078 1.4688 0.14453 0.28516 0.25 0.58594 0.3125 0.89844 0.26172 1.7383 0.61328 3.4609 1.0547 5.1602 2.4766-0.027344 4.9258 0.050781 7.3984 0.23047 16.867-36.539 67.613-67.199 104.85-39.297v0.003907c0.49609 0.375 0.90234 0.85937 1.1797 1.418l2.6055-0.3125c0.074219-0.30859 0.125-0.58984 0.17969-0.90234h0.003906c0.027344-0.13281 0.070313-0.26562 0.125-0.39453 0.17188-1.4492 1.3086-2.5977 2.7539-2.7852 5.1094-0.83594 10.32-0.8125 15.418 0.078125 1.4961-0.23047 2.9766 0.47656 3.7422 1.7812 1.6367-1.4609 3.793-2.2031 5.9805-2.0625 2.1758 0.31641 4.2422 1.168 6.0117 2.4727 0.125-0.15625 0.25391-0.28516 0.39453-0.44141v0.003906c-4.5625-5.6719-10.039-10.543-16.207-14.402-1.4258-0.81641-2.1328-2.4844-1.7266-4.0742-0.035156-0.78125 0.19141-1.5547 0.64453-2.1914 12.402-18.438 43.691-38.137 66.578-34.637 1.6094 0.12109 2.8477 1.4805 2.8086 3.0977 11.32 24.238 21.789 48.992 36.438 71.5 11.5 17.637 28.547 35.121 24.703 57.785-0.097657 0.66797-0.38281 1.293-0.82422 1.8047-0.078125 0.12891-0.12891 0.28516-0.20703 0.41406-2.5859 4.9727-6.125 9.3828-10.414 12.988 2.5234 6.9023 2.0352 14.543-1.3438 21.066 4.3984 3.8086 8.3594 8.0977 11.809 12.789 0.48828 0.23438 0.92969 0.56641 1.2891 0.97656zm-59.773 161.5c68.516-13.254 99.188-98.09 56.809-152.83-0.10547-0.027344-0.17969-0.027344-0.28516-0.050781-10.57-2.9648-21.609-8.5078-32.855-7.7109-0.85156 2.3633-1.6758 4.7227-2.4766 7.0859l0.007812-0.003906c0.30859 0.20312 0.59375 0.4375 0.85156 0.69531 18.703 19.746 26.512 47.422 20.887 74.031-4.3047 20.5-14.441 42.957-33.008 54.355-17.762 10.934-44.711 11.836-59.871-4.5625-14.699-15.914-18.672-38.527-15.215-59.41h-0.003906c-3.5742-2.4258-4.5977-7.2422-2.3164-10.91 1.5469-3.3242 4.0977-5.957 5.6719-9.2812 1.2891-2.7539 2.3984-5.5703 3.7383-8.2656 1.8906-4.8516 5.3867-8.9102 9.9023-11.5 0.046875-0.027343 0.10156-0.046874 0.15625-0.050781-1.2383-4.6172-2.4492-9.2305-3.5859-13.848-9.1016 10.188-15.168 22.719-17.508 36.176-3.543 16.582-8.5078 34.941-5.0039 51.957 7.0078 33.855 38.527 61.008 74.109 54.121zm52.836-213.58v-0.023437c0-1.3672-0.078125-2.707-0.027343-4.0508l0.003906-0.003907c-2.0039 0.76562-3.375 2.6367-3.5078 4.7773-0.050781 1.1797 0 2.3984 0.027344 3.5859 0.85156-1.2891 2.0352-2.6289 2.832-3.9375 0.082032-0.14453 0.67578-0.24609 0.67578-0.35156zm-0.62109-8.1992c-1.0039-9.8398-6.4414-19.598-12.789-28.855l0.003906-0.003907c-1.1133 0.83203-2.3984 1.4023-3.7617 1.6758 0.90234 2.1133 1.75 4.1016 2.4766 5.9297 0.78906 2.4766 1.4688 4.6914 2.0859 6.6914 1.082 4.0234 1.8047 7.1953 2.293 9.6211 0.92969 4.8438 0.95703 6.7812 0.44141 6.9102-0.51563 0.12891-1.4727-1.5234-3.0977-6.1914-0.82422-2.3633-1.8008-5.3867-3.043-9.3086-0.66797-1.9336-1.418-4.0469-2.2422-6.418-0.92578-2.1133-1.9297-4.4375-3.0156-6.9609-9.6211-0.59375-22.043-8.6602-27.945-12.453-22.098-14.262-40.43-38.266-64.945-48.242-0.51562 0.61719-1.0039 1.2344-1.4688 1.832v-0.003906c2.7031 1.9219 5.2852 4.0039 7.7344 6.2383 2.0664 1.3672 4.1523 2.6562 6.1406 3.9375 5.0859 2.9961 9.6836 6.7539 13.637 11.141 3.1719 4.125 6.0625 7.7344 8.457 11.02 2.2148 3.4336 4.1523 6.3945 5.8281 8.9727 6.418 10.547 8.2227 14.754 7.8711 15.059-0.49219 0.36328-3.25-3.543-10.137-13.535-1.7773-2.4766-3.8164-5.3359-6.1641-8.6133-2.5-3.0938-5.3555-6.6172-8.5625-10.57l0.007813 0.003907c-1.9648-2.1992-4.1602-4.1797-6.5508-5.9062 7.375 9.9297 11.863 21.559 7.5586 32.004-0.17969 0.39453-0.39453 0.78906-0.59375 1.1797 6.3945 4.793 12.094 10.418 18.129 15.625v0.003907c1.6797-0.91406 3.5352-1.457 5.4414-1.5977 0.12109-0.015625 0.24609 0.003907 0.35938 0.050781 0.09375-0.03125 0.1875-0.046874 0.28516-0.050781 4.0586 0.28516 8.0625 1.0977 11.91 2.4219 0.050781 0.023438 0.078124 0.050782 0.12891 0.074219v0.003906c0.28125 0.0625 0.54688 0.17578 0.78906 0.33203 15.395 11.297 35.094 17.586 44.941 35.07 0.15234 0.26953 0.23828 0.57031 0.25781 0.87891 0.027344 0.023438 0.050781 0.074219 0.10156 0.10156 0.26172-0.23047 0.51562-0.48828 0.78906-0.74609v-0.10547c-0.38281-3.7539-0.26953-7.543 0.33203-11.27 0.99219-2.9062 3.3555-5.1367 6.3203-5.9492zm-11.777 41.961c2.1719-5.4727 1.9297-11.605-0.67188-16.891-11.004 0.65234-21.961 1.8984-32.824 3.7422 0.53906 2.1914 0.90234 4.4375 1.2852 6.6914h0.003906c11.164-1.8125 22.605 0.48828 32.207 6.4688zm-4.0781 93.086c1.0977-11.949-0.46094-23.996-4.5625-35.273-2.1328 1.8906-4.3672 3.6641-6.6914 5.3125 3.8633 9.3945 5.5312 19.543 4.875 29.68 2.1289-0.066406 4.2617 0.03125 6.3789 0.29297zm-49.895-143.79c12.039 14.52 31.457 27.332 50.953 25.094-4.5352-3.8594-10.449-5.707-16.375-5.1172-0.56641 0.0625-1.125-0.18359-1.4688-0.64453-0.050781-0.027344-0.10547-0.027344-0.15625-0.050781-10.465-5.9648-20.883-16.199-32.953-19.281zm-5.8008-53.66c4.9766 4.0742 46.207 37.785 56.16 29.836-5.7227-8.0469-11.809-15.703-15.805-22.742-10.934-19.285-19.828-39.477-29.219-59.539-15.742-1.3438-37.312 11.02-49.789 23.645 14.773 6.7266 26.148 18.629 38.652 28.801zm55.258 201.31c-2.0859-0.28125-4.1953-0.36719-6.2969-0.25781-0.84375 7.2109-2.9648 14.215-6.2656 20.68 2.1836 0.09375 4.3047 0.77344 6.1367 1.9688 3.2031-7.1172 5.3672-14.656 6.4258-22.391zm-16.137-84.988c9.4219-0.75391 18.891 0.64062 27.695 4.0742-8.3555-9.2852-18.465-15.91-32.516-14.621-15.137 1.3672-29.836 5.8008-44.895 7.8711 3.043 10.652 6.2969 21.254 8.9219 32.027 2.5547 10.418 6.3945 20.426 8.0977 30.941 11.965-1.832 13.875-13.742 17.613-23.695 4.125-11.066 8.1836-22.145 12.172-33.238 0.050781-0.10156 0.10156-0.17969 0.12891-0.25391v-0.003907c-0.042969-0.77734 0.22266-1.543 0.74609-2.125 0.51953-0.58203 1.25-0.93359 2.0312-0.97656zm8.0469 110.88h-0.03125c-0.43359 0.27734-0.96484 0.35938-1.4648 0.23047-1.7617-0.47266-3.4648-1.1328-5.082-1.9648-2.6953 4.3555-6.0625 8.2539-9.9805 11.551l0.050781 0.050782c0.87891 1.9688 1.9102 3.8438 2.7852 5.8047h0.003906c0.37891 0.73047 0.27734 1.6172-0.26172 2.2422-0.085937 0.28125-0.24609 0.53906-0.46094 0.74609-9.5664 9.2344-21.648 9.5977-34.215 9.5977h-0.003906c-0.41797 0.55859-1.1172 0.83594-1.8047 0.71875-0.29297 0.085937-0.60156 0.10156-0.90234 0.050781-7.6758-0.79688-14.73-4.5898-19.625-10.555-0.53516-0.59375-0.51172-1.5 0.050781-2.0664 0.097656-0.27344 0.25781-0.51953 0.46484-0.72266 0.76563-0.70703 1.4492-1.4961 2.0352-2.3594-7.5664-5.5352-13.605-12.898-17.559-21.402 1.4688 12.66 6.2383 25.035 15.91 32.668v0.003906c7.9805 5.8867 17.773 8.7891 27.676 8.1953 9.8984-0.59375 19.277-4.6445 26.5-11.445 6.4883-6.1484 11.871-13.367 15.906-21.344zm-4.3633-63.281c2.4258-1.6484 4.5898-3.6094 6.8594-5.4414v0.003906c-3-7.0703-7.0312-13.66-11.965-19.547-1.3438 3.9375-2.707 7.8398-4.125 11.758 3.7344 3.9102 6.8477 8.3711 9.2305 13.227zm-1.9102-94.168c4.1055-0.24219 8.2109 0.47266 11.992 2.0898-10.211-10.004-24.492-15.574-36.047-24.035l-0.050781-0.050781v0.003906c-3.4922-1.2188-7.1211-1.9805-10.805-2.2734-0.11719-0.007812-0.23438-0.042968-0.33594-0.10156-0.10547 0.027344-0.17969 0.10156-0.3125 0.10156h0.003906c-1.6133 0.089844-3.1562 0.6875-4.4102 1.707 0.20312 0.61719 0.39453 1.2344 0.58984 1.8594 14.879 1.4414 26.715 13.434 39.195 20.551 0.082031 0.046875 0.10156 0.097656 0.17969 0.14844zm-13.254 96.105h0.003907c6.7305 6.4531 9.9297 15.762 8.582 24.988-0.050781 0.45312-0.30078 0.85937-0.67578 1.1172-0.37891 0.25781-0.85156 0.33594-1.293 0.21875-0.17578 0.042969-0.35938 0.070313-0.54297 0.078125-1.9062-0.12891-3.4805 0.78906-3.4297 2.8906h0.003907c-0.10938 1.8008 1.2188 3.3633 3.0156 3.543 0.66797 0.054687 1.2656 0.4375 1.5938 1.0195 0.33203 0.58203 0.35156 1.2891 0.058594 1.8906 0.011718 0.13281 0.011718 0.26562 0 0.39453-1.8516 9.1367-6.8203 17.348-14.055 23.223-0.25781 0.19922-0.55469 0.33594-0.875 0.39453-0.12109 0.41797-0.40625 0.76953-0.78906 0.98047-0.4375 0.26172-0.96484 0.33594-1.4609 0.20312-0.49609-0.13281-0.91797-0.45703-1.1719-0.90234-0.30859-0.69531-0.78906-1.8594-1.6211-2.1133-0.46875-0.21484-1.0156-0.19531-1.4727 0.050781-0.59766 0.40234-1.0078 1.0312-1.1367 1.7422-0.125 0.70703 0.042969 1.4414 0.46875 2.0234 0.44531 0.77734 0.25781 1.7617-0.44141 2.3203-0.089844 0.125-0.20312 0.22656-0.33203 0.30859h-0.027344c-0.089844 0.089844-0.19531 0.17188-0.30859 0.23047-8.0195 3.543-18.105 6.7578-24.906-0.71875-0.60547-0.61719-0.69922-1.5703-0.23438-2.2969 0.03125-0.16406 0.074219-0.32812 0.125-0.49219 0.75781-1.4883 0.375-3.3008-0.92188-4.3555-0.19141-0.16016-0.39844-0.29297-0.625-0.39453-0.32812 0.03125-0.66016-0.003906-0.97656-0.10156-0.64062 0.23047-1.0039 1.1055-1.2344 1.832h-0.003906c-0.27344 0.91406-1.2031 1.4727-2.1406 1.2852-0.54687 0.082031-1.0977-0.078125-1.5195-0.4375-6.9375-5.5977-8.8438-15.082-8.0977-23.594v0.003907c-0.63672-0.23438-1.2578-0.51172-1.8555-0.82813-2.0625-0.19531-4.1094-0.50391-6.1367-0.92969 3.9727 28.289 34.73 57.426 61.422 32.23 19.984-18.848 23.359-51.598 5.9023-72.742-0.92969 2.3203-1.8828 4.6445-2.8867 6.9375zm4.9531 22.562c0.51562-6.9023-1.8906-13.703-6.6289-18.746-0.12891 0.28516-0.23047 0.56641-0.36328 0.85156l0.003906-0.003906c-1.1523 2.5781-2.6992 4.9609-4.5898 7.0586 2.293 4.6133 3.8945 9.5664 6.4453 14.051 1.0273-1.8984 2.9766-3.1172 5.1328-3.2109zm-3.0977 55.105c-0.66797-1.3672-1.3398-2.7539-1.9688-4.125-1.0312 0.74609-2.0898 1.4453-3.1953 2.1133-7.0508 4.3906-15.211 6.6719-23.516 6.5703 0 0.078125 0.023438 0.15625 0.023438 0.26172-0.027344 1.0859-0.17578 2.168-0.4375 3.2227 10.531 0.007812 20.871-0.44141 29.094-8.043zm1.4453-41.516v-0.003906c-1.1211-0.45312-2.1016-1.1992-2.832-2.1641-3.8594 6.957-8.1562 13.664-12.867 20.074 1.3594 0.26562 2.582 1.0078 3.4492 2.0898 6.1641-5.1484 10.469-12.172 12.266-20zm-9.0352-117.79c6.2969-1.1055 12.633-2.0625 18.953-2.832h-0.003906c-14.148-4.0234-26.789-12.145-36.332-23.336 1.1094 3.1211 2.293 6.2148 3.6641 9.2305v-0.003906c1.9258 5.4375 4.957 10.414 8.8945 14.625 1.1328 0.56641 2.2656 1.1602 3.4297 1.6758 0.26172 0.10156 0.49219 0.26953 0.66797 0.48828zm-1.9375 14.855c-0.33203-2.1875-0.77734-4.3594-1.3398-6.5-2.9141 0.54297-5.8008 1.1328-8.6914 1.75v0.003906c0.64453 2.168 1.0625 4.3984 1.2422 6.6562 2.9219-0.69922 5.8398-1.3359 8.7773-1.9102zm4.5938 95.172c-2.4023-4.5547-4.5703-9.2266-6.5-14-3.1172 2.125-6.6992 3.4766-10.445 3.9375 2.1562 3.2422 3.0195 7.1719 2.4258 11.02 4.8359 0 9.6562-0.51562 14.508-0.95703zm-9.2695-108.84c-0.082031-0.0625-0.17188-0.125-0.26172-0.17969-13.664-6.7578-26.066-16.039-39.992-22.617-12.094-5.293-23.633-11.77-34.449-19.336-19.879 6.1875-39.117-3.9375-57.465-11.965-2.9102 0.83594-5.707 2.0273-8.3281 3.543 4.4375 2.6172 8.6641 5.582 12.633 8.8672 8.4766 5.457 17.184 11.848 20.23 21.707 0.55469 1.5859-0.12109 3.3398-1.5977 4.1484-0.10938 0.19531-0.23047 0.38281-0.35938 0.56641-13.23 16.504-35.172 25.684-38.344 48.582h-0.003906c-0.066406 0.73047-0.38281 1.4141-0.89844 1.9336 1.9688 1.0586 3.7109 2.1133 5.3125 3.0703 3.8125 2.3633 6.6914 4.2539 8.918 5.6992 4.4141 2.8867 6.0625 4.0469 5.8281 4.5898-0.17969 0.4375-2.3203 0.12891-7.168-2.2188-2.4258-1.1328-5.5117-2.832-9.3867-4.9766-2.3633-1.2891-5.0273-2.7539-8.0469-4.1758h0.003906c-0.31641-0.058593-0.62891-0.14453-0.92969-0.26172-6.6914-2.7539-21.648-10.027-30.605-7.4258v0.3125-0.003906c0.20703 1.1914-0.19922 2.4023-1.082 3.2266-1.6836 1.4023-3.4414 2.7188-5.2617 3.9336-0.39453 1.0938-0.87891 2.1562-1.4453 3.1719 0.67969 0.41406 1.3242 0.87891 1.9375 1.3906 0.33594 0.26172 0.58984 0.56641 0.90234 0.85547 1.3945-1.4219 2.7539-2.918 4.2812-4.4375 1.3125-1.2812 2.9258-2.2109 4.6914-2.707 1.6719-0.35156 3.4023-0.35156 5.0742 0 2.6719 0.64453 5.3086 1.4336 7.8945 2.3594l6.8594 2.2656c8.6367 2.8359 15.352 5.2852 20.469 6.9102 10.367 2.9922 14.289 4.4883 14.168 5.0039-0.11719 0.51563-4.2031 0-14.906-2.3633-5.2852-1.3203-12.066-3.4844-20.809-6.1641-2.1914-0.67188-4.4883-1.3945-6.9102-2.1406-2.4258-0.74609-5.0547-1.6992-7.4492-2.1641l-0.003906 0.003907c-0.96875-0.17969-1.9609-0.20703-2.9414-0.078126 2.6328 5.6758 4.0391 11.848 4.1289 18.105 24.34 10.883 50.461 16.504 75.57 25.27h0.003906c2.2578-17.688 9.7461-34.301 21.5-47.707 14.562-14.625 33.047-24.715 53.223-29.051 8.1758-2.0352 16.555-3.8945 25.016-5.543zm-3.8164 133.18h-0.003907c4.8086-6.5508 9.2188-13.387 13.203-20.465-5.2852 0.46484-10.57 1.0586-15.883 1.0078-1.5938 3.1289-4.2422 5.5938-7.4766 6.957-0.41406 0.17969-0.78906 0.33984-1.2109 0.49219h-0.003906c2.9492 4.7266 6.8164 8.8086 11.371 12.008zm-2.1406 3.9961c0.10547-0.17969 0.20703-0.35938 0.33984-0.53906h-0.003907c-4.6719-3.1562-8.6758-7.207-11.777-11.914-2.9102 3.5195-6.2734 6.6406-10.004 9.2812 1.0586 0.8125 1.8867 1.8867 2.3984 3.1211 6.3164-0.078126 12.594-0.51563 18.895 0.027343 0.074219 0 0.097656 0.023438 0.14844 0.023438zm-0.56641 4.9531h-0.003907c-0.097656-0.38281-0.16016-0.76953-0.17969-1.1641-5.9258-0.4375-11.836-0.074219-17.762 0.027344h-0.003906c-0.082031 0.5-0.20312 0.98828-0.35938 1.4688 5.1836 4.5664 12.43 2.2227 18.305-0.33203zm0.15625-150.04c-0.95703-1.6758-1.7773-3.3516-2.5273-4.875v-0.003906c-3.6836-8.0742-6.8125-16.387-9.3672-24.883v-0.042968c-0.37891-0.56641-0.38672-1.3047-0.023437-1.8789-5.7773-5.0312-11.242-10.445-17.383-15.035-6.6914 8.0469-20.73 11.938-29.988 11.914-1.1055 0-2.1914-0.027344-3.2969-0.078126 10.965 6.9922 22.449 13.137 34.348 18.383 9.875 4.7617 18.848 11.031 28.227 16.496zm-5.2656 25.301c-0.019531-0.039062-0.027343-0.082031-0.023437-0.125 0.011719-2.2852-0.39844-4.5547-1.2109-6.6914-2.2188 0.51562-4.4375 1.0312-6.6016 1.5742-3.3281 0.82812-6.6914 1.7266-10.031 2.7539 0.49219 1.9688 1.0078 3.9375 1.5469 5.9023 5.1328-0.74219 10.648-2.0312 16.32-3.4141zm-5.6719 96.301c5.3633-2.8906 5.8242-7.1953 2.293-11.988l0.003906-0.003906c-0.50391-0.625-0.76172-1.4141-0.72656-2.2188 0-0.050781-0.023438-0.10156-0.023438-0.15234-0.19141-4.4414-0.79687-8.8516-1.8047-13.18-0.67578 0.61719-1.5625 0.94922-2.4766 0.92969-3.7031 0.007813-7.3945 0.47656-10.98 1.3945 0.17578 0.61719 0.35938 1.2617 0.51562 1.8828 0.023437 0.10156 0.023437 0.17969 0.050781 0.28516 0.027344 0.10156 0.125 0.23047 0.17969 0.36328v-0.003907c1.1172 3.5156 0.35937 7.3555-2.0117 10.184 1.9492-1.5469 4.4453-2.2305 6.9102-1.8789 2 0.09375 3.8398 1.1172 4.9766 2.7656 1.1406 1.6484 1.4414 3.7305 0.82422 5.6367-1.4141 3.1445-4.2383 5.4297-7.6055 6.1641 2.3984 2.1914 7.4805 1.1328 9.875-0.17969zm-2.4531 53.137c0.44141-1.4688 0.78906-2.9648 1.1094-4.4609h0.003906c-5.1836-0.74609-10.168-2.5078-14.672-5.1836-0.5 0.72656-1.0508 1.4141-1.6523 2.0625 4.0625 4.1836 9.4258 6.8594 15.211 7.5859zm-0.28125-87.484c0.27734-0.003906 0.55469 0.023438 0.82813 0.078125-1.9688-7.3516-4.4609-14.621-6.2969-21.766l-0.3125-1.1797c-0.21094 0.054687-0.42578 0.082031-0.64062 0.078125-4.2734 0.11328-8.4805 1.1055-12.352 2.9141 1.8555 7.1953 3.7812 14.371 5.7734 21.535v-0.003907c4.2461-1.0938 8.6133-1.6484 13-1.6562zm-0.50781 43.168c-5.1641 1.043-10.469-0.98828-13.613-5.2109-0.35938-0.023437-0.71875-0.050781-1.082-0.050781v-0.003906c2.1211 4.4531 3.9609 9.0352 5.5078 13.719 3.4453-2.375 6.5352-5.2188 9.1875-8.4531zm-3.0508-15.379c2.8086-4.5938-7.0391-5.6758-7.6328-0.90625-0.10156 1.8828 0.15625 4.4883 2.707 3.9727h0.003906c1.9844-0.32031 3.7617-1.4258 4.9219-3.0664zm-11.32 27.945c0.49219-0.73047 1.1562-1.3242 1.9375-1.7266-1.7773-5.6797-4.0469-11.195-6.7812-16.477v-0.027343l-0.56641-0.074219c-0.8125 6.5859 1.1445 13.219 5.4102 18.305zm6.9922-86.199c-2.9922-10.52-6.2422-20.988-8.9492-31.586-3.3477 1.1797-6.6914 2.4766-9.9258 3.9727 1.2383 8.4805 2.8633 16.863 4.7695 25.191l-0.003906-0.003906c0.97266 0.91016 1.3164 2.3086 0.87891 3.5625 0.15234 0.66797 0.3125 1.3164 0.46484 1.9688 4.0547-1.7383 8.3672-2.7852 12.766-3.1055zm-7.1836 57.332c0.125-1.0195 0.45703-2.0039 0.97656-2.8906-1.8008 1.8047-4.25 3.6133-5.9258 5.6758h-0.003906c1.7578 0.38672 3.5508 0.57422 5.3477 0.57031-0.32031-1.0898-0.45312-2.2227-0.39453-3.3555zm-6.8594-5.9844c1.9336-1.832 5.2578-4.2266 4.2031-7.168-0.027344-0.10156-0.027344-0.17969-0.050781-0.25391l-0.15625-0.39453c-1.2852-4.7695-2.6016-9.5117-3.8945-14.258-5.3867 3.9375-6.7539 11.91-10.004 17.406-1.2344 2.1367-7.168 8.1211-3.2969 9.7969h-0.003906c2.3555 0.93359 4.8438 1.5 7.3711 1.6797 1.6328-2.5234 3.5977-4.8125 5.8477-6.8086zm1.1797-161.21c2.0859-3.8164 2.2852-8.3867 0.54297-12.375-1.3086-3.4922-2.9609-6.8438-4.9336-10.012-0.48828 0.48828-0.95313 1.0039-1.418 1.5469h0.003906c-0.75781 0.82031-1.8633 1.2227-2.9688 1.082-1.1367 0.1875-2.2969-0.15625-3.1484-0.92969-0.95313-0.82812-2.6797-2.6055-3.9375-2.5-0.87891 0.10156-2.3203 1.8008-2.9922 2.5l-0.15625 0.15234c0.20703 1.3711 0.36328 2.7852 0.44141 4.2305v0.003906c6.1133 3.0391 11.457 7.4297 15.625 12.84 0.125 0.17969 0.23438 0.37109 0.33594 0.56641 0.80078 1.0273 1.6797 1.9961 2.625 2.8945zm-5.4492 5.4414c-0.94141-0.90625-1.8281-1.8672-2.6523-2.8867-3.4336 0.023437-6.7812-0.050782-10.086-0.15625 0.54297 2.3633 1.2617 4.6953 1.9102 7.043 3.8281-0.65234 7.5-2.0078 10.828-4zm-3.3984 103.24c-1.7266-7.5312-3.1992-15.137-4.3594-22.797h-0.003906c-6.0703 3.3359-11.59 7.582-16.371 12.594-9.8711 10.918-16.727 24.223-19.883 38.602 6.8086 1.5469 13.23 4.3828 19.988 6.0078v-0.003906c3.5312-13.168 10.676-25.082 20.629-34.402zm-6.8594-114.14h-0.003906c-2.7383-1.9844-5.6562-3.7109-8.7109-5.1562-6.457 0.19531-12.895 0.83203-19.266 1.9102-4.5664 0.49219-9.043 1.6094-13.309 3.3242-2.4727 1.1797-3.4805 1.4453-2.4219 2.7539h0.003906c7.4453-2.3008 15.16-3.6211 22.945-3.9336 6.9648-0.19141 13.848 0.63281 20.758 1.1016zm-33.109 8.457h-0.003906c7.1484 5.2188 15.898 7.7734 24.73 7.2188-0.83203-2.6562-1.5156-5.3594-2.0391-8.0938-7.5742-0.40625-15.168-0.11328-22.691 0.87109zm22.383-21.223c-0.14844-1.6758-0.46484-3.3359-0.94922-4.9453-2.9609-0.45703-5.9648-0.55859-8.9492-0.3125-0.10547 0.48047-0.23828 0.95312-0.39062 1.418-0.51562 1.7891-2.2148 2.9727-4.0742 2.8359-10.496 1.4453-21.094 1.8828-31.59 3.1484 0.79688 2.8633 1.207 5.8203 1.2109 8.793h4.5664c6.1133-7.457 29.523-10.27 40.176-10.941zm-5.3125 169.85c0.39453-1.6211 0.78906-3.1953 1.2109-4.793-6.6914-1.625-13.047-4.4102-19.777-5.9609h-0.003906c-0.95703 4.7383-1.6523 9.5234-2.0859 14.34 6.1875 1.9688 12.324 4.1523 18.562 5.9844 0.64844-3.207 1.3711-6.4023 2.0898-9.5742zm-5.5938 50.641c-0.82422-12.5 0.097656-25.051 2.7305-37.297-6.0859-1.7539-12.066-3.8398-18.105-5.8281v-0.003906c-0.76953 13.684-0.050781 27.41 2.1406 40.938 4.4922 0.082031 8.9531 0.82031 13.234 2.1914zm-1.8047 3.6602c0.050781-0.050782 0.10156-0.074219 0.15234-0.12891h-0.003906c-3.5508-1.0977-7.2383-1.7148-10.957-1.832 0.66797 3.8398 1.418 7.6328 2.2422 11.297 2.6758-3.2695 5.5352-6.3867 8.5625-9.3359zm-50.879-202.65c15.68 6.8594 32.801 16.191 50.051 13.148h-0.003906c-7.0156-1.6758-13.223-5.7656-17.535-11.551-0.69141 0.17969-1.3672 0.36328-2.0625 0.59375h0.003906c-1.4492 0.52734-3.0703 0.007813-3.9375-1.2617-0.10547-0.066407-0.19922-0.14453-0.28516-0.23438-1.1562-1.043-2.1719-2.2344-3.0195-3.543h-21.188c-0.90234 0-1.4727-0.95312-1.7539-2.1875-1.5156-0.15625-2.7617-1.2656-3.0938-2.7539-0.62109-3.6992-0.98828-7.4336-1.0938-11.184-0.058594-1.0195 0.33594-2.0117 1.082-2.707 0.019531-0.070312 0.046874-0.14062 0.074218-0.20703-5.8516 4.2031-11.496 8.8672-17.996 13.227-11.578 7.4141-21.145 17.574-27.852 29.578 10.738-6.457 22.141-11.734 34.012-15.742 0.050781-0.027343 0.078125 0 0.12891-0.027343h0.003906c0.3125-0.26563 0.72266-0.38672 1.1328-0.33594 3.4688-2.1992 7.2383-3.8867 11.191-5.0039 0.36328-0.11328 0.75781-0.09375 1.1094 0.054687 0.34766-0.054687 0.70703-0.007812 1.0312 0.13672zm35.086 215.03c-5.6172-23.266-7.1719-47.324-4.5898-71.121-24.93-8.7656-50.816-14.465-75.082-25.035-0.46484 13.137-7.1562 25.27-18.023 32.668-17.07 10.777-34.141 4.3281-43.422-12.277-3.1406 1.2305-6.082 2.9258-8.7188 5.0312 4.2539 11.656 19.574 16.504 29.191 22.715 4.4766 2.3984 8.3359 5.8086 11.27 9.9531 4.1953 6.6445 8.7656 13.039 13.691 19.16 2.7852 3.8125-3.0703 7.4492-6.1641 4.4609-23.387-1.5469-46.078-14.492-45.305-40.539 0-0.078125 0.023437-0.12891 0.023437-0.20703l0.003906-0.003907c-4.9805-3.5781-8.668-8.6719-10.523-14.516-0.066406-0.046875-0.12891-0.097656-0.18359-0.15625-7.6016-7.4883-15.949-14.176-24.91-19.961-1.418 5.2617 3.3516 7.6875 5.9844 12.172 1.7773 3.0469 2.1133 6.8086 4.0469 9.9297 3.8438 6.2148 9.5977 10.828 13.902 16.812l-0.003907-0.003906c0.23047 0.15234 0.44531 0.32422 0.64063 0.51562 8.8984 8.8711 13.898 21.121 19.523 32.152v0.003906c0.35938 0.71484 0.49609 1.5234 0.39453 2.3203 22.621 9.7383 46.758 15.492 71.344 17.008 22.277 2.0898 44.715 1.7266 66.91-1.082zm-2.7539-243.45c-4.1484-2.2539-8.6211-3.8555-13.258-4.7461-6.6211 2.0039-12.887 5.0391-18.562 9 10.473-2.2812 21.117-3.7031 31.82-4.2539zm-17.348 66.27c-0.3125-0.69531-0.67188-1.3906-1.0586-2.0625-16.926-3.7383-33.648 10.57-48.293 17.199h-0.003907c-4.5664 1.6094-8.957 3.6836-13.098 6.1875-7.7109 5.6484-5.8281 12.988-4.6445 19.934 4.9102-0.074219 9.8047 0.64062 14.492 2.1133-0.92969-6.1367-2.8633-9.9492 1.3164-16.297h-0.003907c3.6445-4.543 8.2852-8.1875 13.566-10.648 10.234-5.5703 21.789-11.164 33.625-11.859 1.4141-1.4727 2.8086-2.9922 4.1016-4.5664zm-3.7383-48.414h-0.003907c0.042969-2.6094-0.39453-5.207-1.2891-7.6562-2.0117 0.36328-4.0234 0.77734-6.0352 1.2383 0.13281 2.1406 0.33594 4.2812 0.61719 6.418zm-47.574 60.223c13.797-6.9883 30.453-19.363 46.84-18.227h-0.003906c-4.5-4.2266-9.4961-7.8906-14.879-10.914-9.8633 6.9297-20.922 11.977-32.617 14.879-0.125 0.33594-0.33984 0.63281-0.61719 0.85547-5.1836 3.9688-11.762 11.215-8.2266 17.844 3.0781-1.543 6.3008-2.8359 9.5-4.4609zm46.383-83.672c-27.07-0.078125-54.176 21.891-65.445 45.977 0.035156 0.11719 0.050781 0.23828 0.050781 0.36328 0.039063 2.7656 0.72656 5.4883 2.0117 7.9375l0.17969-0.074219h0.003906c0.16016-0.046875 0.32422-0.078125 0.49219-0.10156 3.0312-6.3867 6.8789-12.352 11.449-17.746 5.7188-5.3203 11.91-10.109 18.5-14.309 10.953-8.3555 20.586-16.762 32.758-22.047zm-3.6094 80.812c-8.8125 1.8203-17.27 5.0703-25.035 9.6172-4.8008 2.1836-9.1797 5.1836-12.945 8.8711-4.6914 5.3867-2.7539 11.086-2.0625 17.195 3.4844 1.1797 6.7578 2.5039 9.5703 3.6641 3.7344-17.816 17.941-27.641 30.473-39.348zm-13.777-33.625c-2.0625-1.2891-4.125-2.5547-6.0859-3.9727l0.003906 0.003906c-0.26562 0.042969-0.53516 0.027344-0.78906-0.054687-11.242 3.8477-22.047 8.8672-32.23 14.98 1.1406 2.2617 3.3008 3.8359 5.8008 4.2305 0.13281-0.03125 0.26563-0.074219 0.39453-0.12891 11.855-2.8008 23.043-7.918 32.914-15.059zm-35.664 22.664c-0.074219-0.023438-0.125-0.023438-0.20312-0.050782-4.1523 2.3867-8.168 4.9961-12.031 7.8203-4.0742 3.0195-10.781 6.418-13.125 11.168-1.6992 3.4297 2.4258 9.875 4.1523 14.387h-0.003906c2.2148-0.60156 4.5039-0.87891 6.7969-0.83203-0.085938-3.1562 1.1016-6.2148 3.3008-8.4844 1.4844-1.4805 3.1367-2.7773 4.9258-3.8672-4.1172-7.1172 0.60547-14.773 6.1953-20.141zm-5.3008 81.355c-0.39844-0.33984-0.62109-0.84375-0.61328-1.3672 0.011719-0.52344 0.25391-1.0117 0.66406-1.3398-0.089843-5.5547-1.3828-11.027-3.7891-16.039-0.027344 0.023437-0.078125 0.050781-0.10156 0.074219-1.3438 1.2891-2.7539 2.8906-4.3281 4.5156 6.7812 9.7734 3.0703 24.855-2.707 34.398-8.1211 13.461-20.809 17.223-33.547 7.8711h-0.003906c-0.28125-0.16406-0.54297-0.35156-0.78516-0.56641-0.26172-0.21875-0.50391-0.46094-0.72266-0.71875-2.1367-2.0977-3.9258-4.5195-5.293-7.1797-0.95703 0.33984-1.9375 0.67188-2.8672 1.0078 8.0742 13.746 23.285 20.965 37.828 10.367h0.003906c9.8242-7.3594 15.797-18.758 16.262-31.023zm0.64453-83.363v-0.003906c-2.1172-1.457-3.918-3.332-5.2852-5.5078-8.2656 2.8906-16.246 6.5508-24.578 9.3359h0.003906c-0.41016 0.12109-0.83594 0.18359-1.2656 0.17969-0.67188 0.22656-1.3906 0.26953-2.0859 0.12891-7.9727-1.7461-15.652-4.6367-22.797-8.5859-0.25 0.046875-0.50781 0.027344-0.75-0.050781-7.2695-2.0117-14.75-2.8086-22.098-4.2031 0.59375 0.51562 1.1797 1.0312 1.7773 1.5469 19.395 16.352 35.973 35.66 54.59 52.809 0.61719 0.28516 1.2617 0.54297 1.8828 0.82812v-0.003906c-1.0664-2.793-0.95703-5.9023 0.3125-8.6094 0.11719-0.15234 0.24609-0.29297 0.39453-0.41406-1.5977-5.3906-7.8359-13.23-4.125-18.465 5.4805-7.793 15.414-14.035 24.023-18.988zm-8.2656 45.797c-0.4375-2.3984-1.0039-4.9531-1.3164-7.4766-2.6016-0.050782-6.6914-0.023438-7.5312 1.7266l0.003906-0.003906c-0.31641 1.1758-0.30078 2.418 0.050782 3.5859 0.28516 1.5469 0.62109 3.0703 0.98047 4.6172 0.49219 0.15234 0.98047 0.30859 1.4453 0.46484 1.875-1.4492 4.0586-2.4492 6.3789-2.918zm-4.6797-56.73c-1.0312-2.1914-1.7422-4.5195-2.1133-6.9102-4.7461-0.28516-9.4883-0.15234-14.211-0.12891l0.003906-0.003906c-1.1328 0.050781-2.2188-0.44922-2.9141-1.3398-8.6602-4.793-17.223-9.7695-25.449-15.211-3.6875-2.4258-8.5625-6.3398-13.281-5.75-10.492 1.3164-9.9023 7.1953-4.3281 12.531 11.973 11.738 26.852 20.086 43.113 24.184 0.078125-0.023437 0.12891-0.074219 0.20312-0.10156 6.4453-2.1406 12.66-4.8203 18.977-7.2695zm-2.5781 104.94c2.5273-7.2734 5.5117-19.523-3.5078-23.75-3.7188-1.3633-7.7656-1.5859-11.609-0.62891-3.8477 0.95703-7.3203 3.043-9.9688 5.9922-8.5391 9-9.1836 21.223 0.20312 29.836 11.27 8.7461 20.941-0.074218 24.883-11.449zm-6.0391-32.641c1.2109-1.7617 1.9219-3.8203 2.0625-5.9531-7.2734-2.7109-14.355-5.9102-21.195-9.5703-8.5625-4.2266-20.91-9.3828-26.738 1.8867-0.62109 1.2344-1.1797 2.4766-1.7539 3.7109h-0.003906c0.13281 1.3711-0.41406 2.7188-1.4648 3.6094-0.69531 1.7266-1.3438 3.457-1.9688 5.1836 3.1719 2.0625 6.2969 4.1758 9.4883 6.2148 3.7578-4.0586 8.8125-6.6758 14.293-7.3984 5.4805-0.72656 11.043 0.48438 15.723 3.4258 3.7188-1.2422 7.6719-1.625 11.559-1.1094zm-5.4336 96.621c-0.36328-0.49219-0.69531-0.95703-1.0078-1.4727-1.875-3.7773-4.0391-7.4062-6.4688-10.855-2.332 2.2656-4.3164 4.8633-5.8828 7.7109 4.2109 2.1641 8.7109 3.7188 13.359 4.6172zm-3.1211-185.06c-0.078125-0.41406-0.15234-0.82812-0.20703-1.2383-5.1172-4.6914-11.02-8.5352-16.137-13.18-5.4648-2.7305-11.113-5.0547-16.531-7.9141-5.1836-2.7305-11.859-7.0156-18.023-4.6133h-0.003906c-5.1211 1.4336-8.25 6.6016-7.1406 11.809 0.54297 0.92969 1.0312 1.8828 1.4961 2.8633 3.3516-7.2188 15.473-10.363 22.098-7.6836 12.094 4.8984 23.078 13.352 34.449 19.957zm-13.539 178.46c1.7344-3.0664 3.8789-5.8867 6.3711-8.3828-5.168-3.6133-10.559-6.8984-16.137-9.8398-0.98047-0.56641-1.9688-1.1562-2.9414-1.75 1.0312 8.2227 5.6953 15.555 12.707 19.973zm-1.3164-82.336c0.98047-0.78906 2.0117-1.5742 3.0977-2.293v-0.003906c-2.9922-0.58594-6.0898-0.36719-8.9688 0.63672-2.8828 1-5.4453 2.75-7.4297 5.0664 0.019531 0.28125 0.003906 0.57031-0.054688 0.84766-1.7539 11.477-14.262 15.859-22.176 22.77 3.1953 2.4688 6.2266 5.1406 9.0781 7.9961 5.1602-3.7031 10.902-6.5195 16.992-8.3281-0.96484-4.8906-0.59375-9.9492 1.0703-14.645 1.6641-4.6953 4.5625-8.8594 8.3906-12.047zm-13.508-120.49c1.4688 0.69531 2.9375 1.3672 4.4102 2.0352-3.5625-4.4492-8.0273-8.0859-13.102-10.676-15.223-6.2539-31.559-9.3594-48.02-9.1289-0.56641 2.6289-1.3672 5.3359-1.7773 8.0195 9.5 2.082 18.172 6.9336 24.91 13.949 0.050781-0.46094 0.12891-0.95312 0.23047-1.4414 1.3945-6.6055 10.262-10.754 16.398-9.6719 5.9336 1.5352 11.633 3.8633 16.949 6.9141zm-8.3047 125.95v-0.003906c-0.30859-0.46094-0.49609-0.99219-0.54297-1.5469-7.3203-4.8203-14.516-10.652-22.828-13.434-1.2617-0.39453-4.4375-1.8594-5.7227-0.95703-2.293 1.625-0.59375 6.4453 0.15234 8.4297v0.003907c1.75 4.6055 4.2617 8.8867 7.4258 12.66 0.99609 1.1172 1.2578 2.7031 0.67188 4.0742-0.26562 1.5195-1.3477 2.7695-2.8125 3.2539-0.066406 0.019531-0.13281 0.039062-0.20312 0.050781-0.058594 0.046875-0.11719 0.089844-0.18359 0.125-0.15625 0.078125-0.26172 0.15625-0.39453 0.23047-0.050781 0.054687-0.33594 0.28516-0.51562 0.46484h0.003906c0.015625 0 0.027344 0.015626 0.027344 0.027344 1.6484 1.1797 3.2734 2.3633 4.9258 3.5078 5.8672-5.4297 16.516-9.4258 19.996-16.906zm-1.6172 81.129c0.050781-0.10156 0.12891-0.17578 0.17969-0.28516-3.0781-6.75-7.1719-12.988-12.141-18.5-0.039062 0.003906-0.078125-0.003906-0.10547-0.027344-5.7109-1.8945-11.293-4.1602-16.711-6.7812-8.4062 27.875-29.625 54.355-61.371 52.742-12.016-0.61719-22.945-8.9453-29.625-18.5-4.7031-6.7422-8.0977-14.309-10.004-22.305 0.44531 4.2461 1.1133 8.4609 2.0117 12.637 6.5234 30.191 26.664 47.777 58.043 46.906 13.047-0.36328 30.699-0.49219 42.16-7.6094 13.812-8.5469 20.59-24.25 27.562-38.277zm-7.0469-109.26c0.92969-1.9922 2.043-3.8906 3.3281-5.6719-11.094-6.8789-22.707-12.879-34.738-17.945 5.7305 11.656 19.859 17.668 31.41 23.617zm-3.9375 9.7461c0.3125-0.85156 0.61719-1.7266 0.95313-2.6016-9.3828-5.0312-20.074-9.9531-27.82-17.32-29.836-4-63.371 6.0078-78.672 33.676v0.003906c-8.1406 15.305-12.84 32.211-13.758 49.523 2.0898 12.988 2.7305 25.684 10.16 37.391 7.3242 11.551 18.387 22.848 33.238 22.281 28.957-1.0859 47.008-25.039 54.59-50.773-0.51562-0.25391-1.0312-0.56641-1.5234-0.85156-10.828 22.77-20.527 45.715-50.102 44.816-25.977-0.78906-36.438-22.488-37.879-46.363-1.5977-26.301 6.2969-52.09 30.195-66.125 17.195-10.086 47.648-10.781 52.5 14.465l-0.003906 0.003907c0.085937 0.44141 0.09375 0.89453 0.027343 1.3398 3.0273 2.7383 6.1953 5.3242 9.4922 7.7383 0.47656-0.60937 1.0234-1.1602 1.6211-1.6523-6.3672-9.207-14.852-27.387-0.78906-30.766 5.8242-1.4062 12.785 2.3555 17.789 5.2188zm-5.1875-70.133c5.2773 1.3125 10.625 2.3555 16.012 3.1211-5.9336-3.6133-11.277-8.1094-15.859-13.332-4.457-4.8867-7.2188-11.082-7.8711-17.664-6.5781-7.543-15.277-12.926-24.965-15.445 0.035156 3.0039 1.1992 5.8828 3.2617 8.0625 3.5664 3.7656 6.8906 7.7539 9.9531 11.941 5.7734 8.3438 12.289 16.148 19.469 23.316zm1.8008 141.79c-5.4102-6.5-11.473-12.09-14.129-20.68-1.2344-3.9961-5.5703-5.4688-6.8828-9.7227l-0.003906 0.003906c-0.36328-1.1953-0.52734-2.4414-0.48828-3.6875-4.1797 4.9023-7.7891 10.266-10.75 15.988 9.6523 7.8047 20.559 13.926 32.254 18.102zm-21.297-39.398c-2.7852-2.0898-5.4922-4.2812-8.0742-6.6016v0.003906c-5.9688 5.4336-9.7031 12.898-10.465 20.934 1.4961 1.5234 3.043 2.9922 4.6133 4.4141 4.1523-6.7578 7.6328-13.898 13.926-18.75zm-11.172 49.355c2.2148-4.6914 4.2266-9.5391 6.3398-14.168l0.003906-0.003906c-7.5391-4.6953-14.445-10.336-20.551-16.785-0.95312-0.94922-1.3008-2.3477-0.90234-3.6328 0-0.050781-0.027344-0.10156 0-0.15625 0.71875-10.59 5.6055-20.465 13.586-27.465 0.050782-0.023438 0.078125-0.050782 0.12891-0.074219-8.1758 2.7812-13.254 11.523-21.016 15.184-8.0469 3.7891-11.191-5.6719-12.594-12.145v0.003907c-3.1719 2.457-6.0391 5.2852-8.543 8.4219 1.7031 6.2969 4.4375 16.168-1.6758 21.172-3.3984 2.0703-6.6133 4.4258-9.6172 7.0391-1.5938 1.8359-2.6797 4.0586-3.1484 6.4453-0.21094 1.4688-0.33984 2.9492-0.39453 4.4336 0.10938 2.543 0.375 5.0742 0.78906 7.582 3.9375-3.9961 10.363-7.2188 14.234-1.8555 6.5 9.0547 1.7031 21.734 8.0742 31.121l-0.003907 0.003907c1.8789 0.61328 3.8281 0.99219 5.8008 1.1328 1.4453-0.25391 2.8633-0.53906 4.2266-0.90234 0.72266-0.20703 1.418-0.46484 2.1133-0.72266-3.9375-7.2969-7.0391-19.105-2.5508-25.09 5.4648-7.25 17.828-3.0742 25.699 0.46094zm-2.7539-65.91c-8.8672-3.2227-17.922 7.8398-22.379 15.676v0.003906c0.13281-0.011718 0.26562-0.039062 0.39062-0.074218 3.1055-1.4297 5.9102-3.4336 8.2656-5.9062 3.918-4.0742 8.5742-7.3633 13.723-9.6992zm-16.891 89.086c7.9609-4.4258 14.246-11.34 17.898-19.68-6.5273-2.8086-19.312-7.2695-21.223-0.78906-1.4102 7-0.23047 14.273 3.3242 20.469zm12.227-96.039c-6.332-4.5547-14.406-5.9453-21.895-3.7617-9.3164 3.1055-17.668 8.5781-24.238 15.879-12.969 14.562-16.449 35.922-12.988 54.871 1.6211 8.8711 4.1484 21.402 11.707 27.336h-0.003906c3.7383 2.8008 8.1523 4.5508 12.789 5.0781-9.3438-5.7734-16.035-15.004-18.617-25.68-0.13281-0.24609-0.21094-0.51172-0.23438-0.78906-0.015625-0.058594-0.023437-0.12109-0.023437-0.17969-1.0898-4.3398-1.5586-8.8125-1.3906-13.281-0.015625-1.3203 0.10547-2.6406 0.35938-3.9375 0.24219-1.875 0.62891-3.7266 1.1641-5.5391 7.9609-27.031 23.898-48.844 53.371-49.996zm-21.223 20.965v-0.003907c3.6055-6.9531 9.125-12.734 15.91-16.656-6.7148 0.92188-13.152 3.2773-18.875 6.9141 0.38672 3.3984 1.3906 6.6992 2.9648 9.7344zm-12.43 74.305c-1.5234-4.4648-2.375-9.1289-2.5273-13.848 0.17578-4-0.63672-7.9844-2.3633-11.602-3.4297-4.7461-8.8672 0.87891-10.699 3.8672 0 0.023437-0.027344 0.050781-0.050782 0.074218v0.003907c0.53906 1.7188 1.1992 3.3984 1.9688 5.0273 2.8828 6.6914 7.625 12.41 13.672 16.477zm-9.4883-52.859c6.0859-4.125 5.5703-10.137 4.0742-16.297h-0.003907c-2.9219 4.4258-5.2969 9.1797-7.082 14.172-0.66797 1.8828-1.3164 3.7383-1.8828 5.5977 1.5312-1.2305 3.1641-2.2891 4.8906-3.4727z"/>
  <path d="m553.86 423.29c0.82422-0.17188 1.6641 0.19531 2.0938 0.91797s0.35547 1.6367-0.1875 2.2773c-3.0664 7.6602-3.0664 16.219-7.6562 23.285-0.51953 0.80859-1.5547 1.1055-2.4219 0.69531-2.4766 0.019531-4.6719-1.5781-5.418-3.9336-0.097656-0.30859-0.10547-0.64062-0.023437-0.95312 0-0.078125-0.050782-0.12891-0.050782-0.20312 0.074219-5.8281 1.0039-11.602 1.082-17.406-0.003906-0.49219 0.18359-0.96094 0.52734-1.3125 0.34375-0.34766 0.8125-0.54297 1.3047-0.54688l0.023437-0.027344c3.4805-1.2461 7.1719-1.7891 10.727-2.793zm-4.4141 11.371c0.49219-2.2695 1.0078-4.5156 1.7031-6.6914-2.0391 0.46484-4.0742 0.92578-6.0859 1.5742-0.050781 1.3164-0.10547 2.6289-0.20703 3.9375 1.5273 0.37109 3.0742 0.74219 4.5938 1.1797zm-0.90234 3.7383c-0.023438 0-0.023438 0.023438-0.050781 0-1.3164-0.36328-2.6289-0.69531-3.9375-1.0312-0.23047 2.6562-0.44141 5.3086-0.49219 7.9922 0 0.050781-0.023438 0.10156-0.023438 0.17969l0.003907 0.003906c0.21484 0.60938 0.77344 1.0273 1.418 1.0547 1.3867-2.5859 2.4258-5.3398 3.0859-8.1992z"/>
  <path d="m537.44 364.75 2.2383 2.832-3.4805 0.59375c-1.418 0.23047-2.8633 0.46484-4.3047 0.71875v0.003907c-22.383 1.8359-44.117 8.4102-63.766 19.289-14.98 8.3008-23.078 15.699-23.566 15.031-0.17969-0.23047 1.6992-2.1406 5.2852-5.4414 0.90234-0.78906 1.8555-1.7773 3.0156-2.6836s2.5039-1.8828 3.8945-2.9414 2.918-2.1367 4.5156-3.3242c1.6758-1.0547 3.4297-2.1367 5.3086-3.2969h0.003906c8.7773-5.4023 18.129-9.8125 27.879-13.148 2.7539-0.90625 5.5938-1.8867 8.5078-2.7539 2.9648-0.71875 5.9805-1.4453 9.0781-2.1914 6.0859-1.207 12.594-2.0625 18.895-2.832v-0.003907c-1.1953-0.82031-2.4453-1.5625-3.7383-2.2188-2.6562-1.2852-5.4453-2.3984-8.2656-3.4531-2.8164-1.0234-5.5742-2.1914-8.2656-3.5078-2.6016-1.3203-5.1172-2.5039-7.5547-3.6875-2.4766-1.082-4.8711-2.2188-7.2461-3.043-1.2109-0.39453-2.3633-0.78906-3.543-1.2109l-0.20312-0.050781-0.078125-0.027344h-0.023437l-0.46484-0.10156-0.90234-0.17969-1.8047-0.39453v-0.003906c-2.2656-0.53516-4.5664-0.91016-6.8867-1.1328-2.1641-0.15625-4.2305-0.51562-6.2656-0.51562-2.0352 0-4-0.027344-5.8281-0.027344-1.832 0-3.543 0.20312-5.1797 0.28516-1.6016 0.15234-3.1719 0.15234-4.4883 0.36328-1.3945 0.17969-2.6562 0.33594-3.8164 0.48828v-0.003906c-2.3125 0.61719-4.6953 0.92969-7.0859 0.92969 2.1055-1.2422 4.4102-2.1055 6.8086-2.5547l3.7383-0.85156c1.4453-0.35938 2.9414-0.46484 4.5898-0.71875s3.4062-0.56641 5.3125-0.64453c1.9102-0.078125 3.8945-0.17969 5.9805-0.28516 2.0859-0.10156 4.3594 0.17969 6.6914 0.26172 2.3789 0.14453 4.75 0.45312 7.0859 0.92578l1.832 0.3125 0.92969 0.17969 0.46484 0.078125h0.10156c0.33594 0.074219 0.15234 0.050781 0.25391 0.074219l0.23047 0.078125c1.2383 0.39453 2.5039 0.78906 3.7891 1.1797 2.5547 0.78906 5.0547 1.9102 7.6367 2.9688 2.5273 1.1562 5.1172 2.3633 7.707 3.582 2.6055 1.2344 5.2734 2.3281 7.9961 3.2734 2.8359 1.0312 5.75 2.1406 8.6602 3.543 3.1914 1.457 6.0312 3.5859 8.3281 6.2383z"/>
  <path d="m420.83 516.42 1.2344 3.6602-3.7891-0.87891c-10.004-2.293-19.234-3.3477-25.863-4.5898-3.6094-0.32031-7.1289-1.3281-10.363-2.9609 0.078125-0.56641 4.1523-0.39453 10.805 0.12891 7.5586 0.40234 15.094 1.2266 22.559 2.4766-0.25391-0.69531-0.48828-1.4219-0.78906-2.1406h0.003906c-0.95703-2.5078-2.2812-4.8555-3.9375-6.9648-1.5117-1.8008-3.4531-3.1953-5.6484-4.0508-2.1914-0.82812-4.4648-1.4336-6.7812-1.8008-2.1914-0.41406-4.3281-0.67188-6.2969-1.0078-1.9688-0.33594-3.7383-0.71875-5.2852-1.082-1.5508-0.4375-2.8672-0.90234-3.9375-1.3164-2.0391-1.0312-3.0703-1.6992-2.9414-1.9688 0.12891-0.26953 1.3672-0.12891 3.4297 0.35938 3.0078 0.48047 6.0352 0.79688 9.0781 0.95703 1.9375 0.15234 4.0742 0.23047 6.4453 0.51562 2.5586 0.24609 5.082 0.76563 7.5312 1.5469 2.9375 0.99219 5.5625 2.7422 7.6094 5.0781 2.0039 2.4258 3.5977 5.1602 4.7227 8.0977 0.84766 2.0195 1.5703 4.0039 2.2148 5.9414z"/>
  <path d="m232.11 443.89c12.738 9.0234 2.5508 35.789-13.461 32.129-19.188-6.3516-0.77734-42.262 13.461-32.129zm-12.43 28.391c11.02 2.5273 19.363-17.32 11.293-24.402l-0.003906-0.003906c-1.043-0.96094-2.3945-1.5273-3.8125-1.5977 2.2656 2.3477 3.4102 5.5586 3.1445 8.8125-0.26562 3.25-1.9219 6.2305-4.5391 8.1797-1.5547 1.2383-3.5859 1.707-5.5273 1.2656-1.9375-0.4375-3.5742-1.7344-4.4414-3.5234-0.35547-0.79297-0.61719-1.625-0.78516-2.4766-1.8555 5.7773-1.1602 11.836 4.6719 13.746zm4.125-12.375c3.7109-2.6562 4.0234-11.602-1.7773-11.762h-0.003906c-0.46484 0.34375-0.90625 0.72266-1.3125 1.1328-0.050782 0.25391-0.15625 0.49219-0.3125 0.69531-1.6797 2.3242-2.2617 5.2617-1.5977 8.0469 0.77344 2.6562 2.6055 3.6094 5.0039 1.8867z"/>
 </g>
</svg>