<?xml version="1.0" standalone="no"?>
<!DOCTYPE svg PUBLIC "-//W3C//DTD SVG 20010904//EN"
 "http://www.w3.org/TR/2001/REC-SVG-20010904/DTD/svg10.dtd">
<svg version="1.0" xmlns="http://www.w3.org/2000/svg"
 width="500.000000pt" height="500.000000pt" viewBox="0 0 500.000000 500.000000"
 preserveAspectRatio="xMidYMid meet">

<g transform="translate(0.000000,500.000000) scale(0.100000,-0.100000)"
fill="#fff" stroke="none">
<path d="M932 3214 c-154 -34 -316 -159 -391 -303 -60 -116 -75 -178 -75 -306
0 -179 51 -310 171 -435 191 -201 484 -257 719 -136 182 92 298 241 343 437
29 123 5 289 -61 427 -45 94 -168 217 -266 266 -126 63 -293 82 -440 50z m103
-74 c18 -15 20 -51 3 -68 -19 -19 8 -44 32 -30 10 7 17 14 15 18 -2 3 22 3 53
1 l56 -3 -18 27 c-14 22 -16 32 -7 51 13 29 29 29 106 1 62 -23 64 -26 50 -82
-4 -16 -4 -27 0 -23 5 5 15 -2 23 -13 11 -16 16 -18 23 -8 4 7 3 19 -3 26 -7
9 -7 13 0 13 26 0 42 -14 42 -37 0 -18 -9 -28 -35 -39 -19 -8 -35 -19 -35 -24
0 -22 -16 -8 -25 22 -6 17 -15 33 -21 35 -14 5 -26 -35 -13 -43 5 -3 7 -10 4
-15 -4 -5 -1 -9 5 -9 13 0 49 -40 50 -54 0 -4 -7 -5 -16 -2 -26 10 -44 -12
-37 -45 3 -16 1 -35 -6 -42 -8 -11 -3 -17 22 -29 60 -30 114 -76 136 -118 12
-23 21 -47 19 -53 -1 -7 21 -34 49 -62 39 -39 52 -59 58 -93 7 -46 25 -48 25
-2 0 15 9 50 21 77 22 52 28 101 12 111 -12 9 -38 101 -30 108 3 4 9 -8 14
-25 4 -17 13 -30 18 -30 15 3 24 -68 19 -146 -6 -71 -31 -153 -66 -212 -17
-29 -25 -33 -60 -33 l-40 0 26 30 c36 43 42 89 19 141 -25 56 -42 69 -106 84
-41 9 -52 16 -52 31 0 13 8 20 28 22 15 2 27 6 27 8 0 20 -36 65 -73 92 -57
40 -77 41 -77 3 l0 -28 -46 15 c-37 12 -49 22 -61 50 -15 36 -11 54 9 34 18
-18 28 -15 28 8 0 10 7 23 16 28 13 7 15 18 10 43 -12 67 -110 72 -123 7 -4
-21 -11 -28 -29 -28 -35 0 -141 -93 -167 -147 l-22 -45 -90 7 c-66 5 -87 4
-79 -4 6 -7 24 -13 41 -14 17 -1 29 -4 27 -6 -2 -2 1 -10 8 -18 14 -17 11 -20
-35 -26 -70 -9 -124 -87 -110 -158 3 -16 20 -45 37 -65 28 -33 38 -38 89 -42
55 -4 58 -3 95 34 22 22 41 45 44 53 6 21 38 6 38 -18 0 -25 26 -30 151 -34
108 -2 129 7 129 55 0 37 23 81 56 107 41 33 49 25 15 -14 -17 -20 -31 -46
-32 -58 -3 -53 4 -84 22 -109 l20 -28 -350 0 -349 0 -14 23 c-40 63 -60 134
-65 232 -7 121 7 217 41 287 23 48 25 50 20 18 -4 -19 -13 -47 -20 -62 -11
-20 -11 -34 -3 -55 11 -31 44 -70 72 -84 16 -9 17 -7 11 18 -4 15 -13 35 -20
44 -20 22 -17 37 11 64 30 31 39 31 65 3 l20 -22 0 25 c0 30 90 106 136 115
25 5 31 10 27 25 -6 22 11 25 51 9 25 -9 26 -8 26 24 0 25 -5 35 -20 39 -11 3
-24 15 -28 28 l-9 23 -27 -27 c-44 -44 -63 -50 -70 -24 -6 25 10 45 41 52 12
2 30 8 40 13 21 11 46 5 37 -10 -4 -6 5 -8 22 -6 21 2 30 9 32 26 2 12 -1 22
-7 22 -7 0 -7 8 -1 24 l9 23 -52 -28 c-59 -32 -76 -36 -73 -14 3 20 12 28 49
42 37 14 101 10 122 -7z m360 -70 c3 -5 2 -10 -4 -10 -5 0 -13 5 -16 10 -3 6
-2 10 4 10 5 0 13 -4 16 -10z m148 -166 c3 -3 1 -14 -5 -24 -9 -14 -9 -22 1
-34 17 -20 6 -35 -36 -53 -33 -13 -37 -13 -57 6 -25 23 -84 28 -118 10 -18
-10 -19 -8 -13 13 11 34 33 56 71 68 29 10 38 9 63 -9 16 -12 34 -21 40 -21
15 0 14 23 -1 38 -9 9 -5 12 18 12 17 0 33 -3 37 -6z m-455 -226 c23 -23 14
-39 -20 -36 -32 3 -53 28 -24 28 9 0 16 5 16 10 0 14 13 13 28 -2z m-251 -156
c21 -12 40 -48 30 -59 -3 -3 -19 3 -36 13 -39 23 -81 8 -81 -31 0 -33 42 -55
71 -37 27 17 39 15 39 -7 0 -22 -40 -51 -70 -51 -52 0 -105 55 -97 101 5 33
38 69 70 77 38 10 45 10 74 -6z m628 -57 c38 -37 35 -95 -6 -129 -37 -31 -77
-33 -112 -6 -31 24 -44 78 -27 110 11 21 13 20 43 -24 18 -25 35 -46 40 -46 4
0 17 10 28 21 l22 22 -32 29 c-17 16 -31 33 -31 39 0 19 52 8 75 -16z m-346
-239 c-11 -10 -69 -17 -69 -7 0 5 15 11 33 13 32 3 44 1 36 -6z m-356 -13 c-7
-2 -21 -2 -30 0 -10 3 -4 5 12 5 17 0 24 -2 18 -5z m182 -3 c-3 -5 -18 -10
-33 -10 -15 0 -44 -5 -66 -11 -38 -10 -95 -4 -82 9 16 16 191 27 181 12z m330
-5 c-58 -18 -246 -113 -271 -136 -11 -10 -30 -19 -42 -19 -22 0 -138 48 -131
54 18 15 273 89 344 100 117 18 154 19 100 1z"/>
<path d="M2635 3111 c-49 -22 -99 -77 -115 -127 -8 -22 -10 -63 -7 -102 9
-114 80 -182 199 -190 49 -4 67 0 114 24 45 23 60 37 80 77 83 163 -10 337
-181 337 -27 0 -68 -9 -90 -19z m145 -74 c13 -7 35 -28 48 -47 20 -29 23 -44
20 -93 -4 -46 -10 -63 -33 -87 -43 -45 -91 -57 -140 -33 -72 34 -101 134 -62
210 30 56 108 80 167 50z"/>
<path d="M1900 3116 c0 -3 11 -51 24 -108 13 -57 34 -149 47 -206 l22 -103 61
3 60 3 18 75 c11 41 29 111 40 155 l22 80 18 -60 c17 -54 57 -229 58 -247 0
-5 27 -8 60 -8 l59 0 11 38 c5 20 13 55 16 77 4 22 22 97 40 166 19 70 34 130
34 133 0 3 -19 6 -43 6 l-43 0 -33 -155 c-19 -86 -38 -152 -42 -148 -7 7 -59
200 -74 276 -5 25 -8 27 -59 27 l-55 0 -15 -54 c-9 -30 -16 -60 -16 -68 1 -22
-44 -188 -51 -188 -3 0 -11 24 -17 53 -6 28 -21 98 -33 155 l-22 102 -44 0
c-23 0 -43 -2 -43 -4z"/>
<path d="M3000 2911 l1 -211 44 0 44 0 3 73 c3 70 4 72 30 75 29 3 40 -9 89
-95 l29 -53 56 0 c59 0 59 -1 19 55 -12 17 -32 46 -44 67 l-21 36 33 21 c77
47 77 165 0 217 -23 15 -51 19 -156 22 l-127 4 0 -211z m222 122 c28 -32 30
-58 7 -86 -18 -24 -27 -27 -80 -27 l-59 0 0 65 0 65 58 0 c44 0 63 -5 74 -17z"/>
<path d="M3420 2910 l0 -210 130 0 130 0 0 35 0 35 -85 0 -85 0 0 175 0 175
-45 0 -45 0 0 -210z"/>
<path d="M3750 2911 l0 -211 108 0 c99 0 113 3 162 28 71 35 99 88 100 182 0
80 -26 131 -88 175 -42 29 -49 30 -163 33 l-119 4 0 -211z m241 102 c39 -44
47 -107 22 -164 -27 -60 -43 -70 -118 -77 l-65 -5 0 143 0 142 66 -4 c59 -4
70 -8 95 -35z"/>
<path d="M2319 2579 c-41 -15 -49 -48 -49 -194 0 -124 2 -136 23 -160 47 -55
152 -50 187 8 17 27 20 51 20 155 0 136 -12 175 -56 192 -31 12 -90 12 -125
-1z m99 -183 c2 -97 -1 -131 -10 -138 -20 -12 -35 -10 -52 8 -13 12 -16 38
-16 120 0 121 9 147 48 142 l27 -3 3 -129z"/>
<path d="M2834 2576 c-40 -18 -54 -66 -54 -190 0 -146 30 -196 117 -196 104 0
123 31 123 200 0 134 -12 174 -56 190 -35 14 -93 12 -130 -4z m94 -58 c8 -8
12 -51 12 -130 0 -107 -2 -118 -20 -128 -14 -8 -26 -8 -40 0 -18 10 -20 21
-20 128 0 120 6 142 40 142 9 0 21 -5 28 -12z"/>
<path d="M3388 2579 c-35 -13 -41 -54 -37 -224 4 -119 5 -128 28 -146 16 -13
39 -19 78 -19 47 0 59 4 84 29 19 20 29 40 29 60 0 29 -3 31 -34 31 -28 0 -35
-4 -40 -26 -6 -21 -11 -25 -39 -22 l-32 3 0 130 0 130 30 0 c25 0 32 -5 40
-32 8 -29 13 -33 43 -33 l35 0 -6 42 c-8 60 -43 88 -105 87 -26 0 -59 -5 -74
-10z"/>
<path d="M3618 2582 c-16 -2 -28 -5 -28 -7 0 -2 19 -46 41 -97 37 -83 42 -103
47 -190 l4 -98 34 0 34 0 0 83 c0 72 5 94 35 168 19 48 38 100 41 118 6 29 5
31 -24 31 -27 0 -32 -5 -52 -57 -13 -32 -26 -62 -30 -66 -4 -5 -18 19 -31 52
-25 65 -29 68 -71 63z"/>
<path d="M3907 2579 c-34 -20 -47 -72 -47 -186 0 -160 28 -203 132 -203 38 0
54 6 78 28 16 15 33 42 36 60 l7 32 -46 0 c-40 0 -46 -3 -49 -22 -2 -18 -10
-23 -33 -23 l-30 0 0 130 0 130 30 0 c25 0 30 -4 33 -27 3 -25 7 -28 43 -28
38 0 39 1 39 34 0 19 -8 44 -19 57 -16 19 -30 24 -87 26 -40 2 -77 -1 -87 -8z"/>
<path d="M4183 2583 c-10 -3 -13 -53 -13 -199 l0 -194 101 0 100 0 -3 38 -3
37 -57 3 -58 3 0 159 0 160 -27 -1 c-16 0 -34 -3 -40 -6z"/>
<path d="M4425 2505 c-4 -47 -4 -137 0 -200 l7 -115 89 0 89 0 0 40 0 40 -55
0 -55 0 0 45 0 45 43 0 c53 0 55 2 49 40 -4 28 -7 30 -48 30 l-44 0 0 45 0 45
55 0 55 0 0 35 0 35 -89 0 -89 0 -7 -85z"/>
<path d="M1910 2386 l0 -196 25 0 25 0 0 120 c0 66 4 120 8 120 5 0 21 -54 36
-121 28 -118 29 -120 54 -117 25 3 28 10 57 128 l30 125 3 -127 3 -128 34 0
35 0 0 195 0 195 -49 0 c-50 0 -61 -9 -61 -48 1 -28 -44 -182 -52 -182 -5 0
-8 8 -8 18 -1 9 -13 60 -28 112 l-28 95 -42 3 -42 3 0 -195z"/>
<path d="M2540 2550 c0 -27 3 -30 30 -30 l30 0 2 -162 3 -163 37 -3 38 -3 2
168 3 168 33 -3 c30 -3 32 -1 32 27 l0 31 -105 0 -105 0 0 -30z"/>
<path d="M3070 2385 l0 -195 35 0 35 0 0 80 c0 72 2 80 19 80 12 0 21 -9 25
-25 4 -14 16 -50 27 -80 20 -54 21 -55 60 -55 46 0 46 -1 -2 107 l-28 63 30
29 c24 25 29 37 29 79 0 40 -6 57 -26 81 -25 30 -28 31 -115 31 l-89 0 0 -195z
m140 125 c38 -38 16 -94 -35 -88 -27 3 -30 7 -33 42 -2 21 -1 44 2 52 8 20 43
17 66 -6z"/>
</g>
</svg>
