<svg version="1.1" id="Layer_1" xmlns="http://www.w3.org/2000/svg" xmlns:xlink="http://www.w3.org/1999/xlink" x="0px" y="0px"
	 width="100%" viewBox="0 0 437 440" enable-background="new 0 0 437 440" xml:space="preserve">
<path fill="#000000" opacity="1.000000" stroke="none" 
	d="
M438.000000,152.000000 
	C438.000000,248.639267 438.000000,344.778534 438.000000,440.958923 
	C292.402222,440.958923 146.804443,440.958923 1.103330,440.958923 
	C1.103330,294.444061 1.103330,147.888031 1.103330,1.165997 
	C146.666504,1.165997 292.333252,1.165997 438.000000,1.165997 
	C438.000000,51.195591 438.000000,101.347794 438.000000,152.000000 
M61.274097,363.426758 
	C61.494148,363.634796 61.726933,363.827484 62.051674,364.718781 
	C63.201557,366.485474 64.111763,368.479492 65.538307,369.983826 
	C80.325035,385.576904 97.088768,398.675110 116.005089,408.875275 
	C126.028236,414.279999 136.137360,419.644073 146.627716,424.019379 
	C153.000763,426.677429 160.175140,427.414093 167.000000,429.001221 
	C167.000000,429.001221 166.989883,429.009979 167.320282,429.615570 
	C169.590363,432.673920 172.211929,434.445007 176.459320,432.016937 
	C178.688370,432.431427 181.000931,432.594666 183.132278,433.303131 
	C193.363617,436.703857 203.992401,435.525543 214.432968,435.886902 
	C226.878464,436.317627 239.364929,435.872314 251.822647,435.468048 
	C255.942657,435.334320 260.052216,434.263611 264.122314,433.410217 
	C267.121002,432.781433 270.047729,431.809509 273.039429,431.059143 
	C273.039429,431.059143 272.990692,431.006256 273.537384,430.541046 
	C277.696472,429.543488 282.088593,429.095490 285.972351,427.448669 
	C299.357422,421.772888 313.096313,416.624542 325.722290,409.533661 
	C347.596588,397.248901 366.784760,381.320007 383.577911,361.655151 
	C387.676178,356.288422 391.907623,351.017395 395.845978,345.535767 
	C405.078857,332.684875 412.450989,318.816620 418.335480,303.347656 
	C421.640259,292.889343 425.232117,282.510468 428.154999,271.946472 
	C430.321198,264.117249 432.515717,256.113403 433.106689,248.070450 
	C434.189148,233.339386 434.104980,218.522171 434.472809,203.740005 
	C434.497284,202.755569 434.256714,201.759857 434.096954,200.776276 
	C433.174438,195.094910 431.803711,189.445908 431.405792,183.728821 
	C430.736298,174.109711 428.117126,165.006439 425.079803,155.987549 
	C422.856323,149.385361 420.823212,142.632431 417.746368,136.421707 
	C410.632965,122.062935 403.783142,107.507652 393.808929,94.768784 
	C388.287140,87.716446 383.337311,80.140541 377.237305,73.637711 
	C371.007782,66.996796 363.643524,61.427658 356.851562,55.305550 
	C342.765808,42.609081 326.989014,32.346481 309.709045,24.797516 
	C296.948029,19.222729 283.688171,14.460235 270.237274,10.895247 
	C258.827515,7.871240 246.837433,6.998393 235.078995,5.353417 
	C231.828720,4.898711 228.489166,5.060879 225.189545,4.984721 
	C219.572647,4.855078 213.916382,4.297029 208.346512,4.759827 
	C199.865479,5.464511 191.444046,6.886499 182.961243,7.937323 
	C182.961243,7.937323 183.003799,7.997416 182.428848,8.339959 
	C180.641571,8.574272 178.790817,8.587873 177.077805,9.080466 
	C168.927032,11.424310 160.777771,13.785538 152.697662,16.359367 
	C145.237625,18.735672 137.564636,20.754368 130.535126,24.089235 
	C122.524506,27.889547 114.886307,32.621548 107.511780,37.581318 
	C96.662582,44.877983 85.932198,52.407890 75.673744,60.500816 
	C71.022514,64.170181 67.681046,69.479553 63.649975,73.959068 
	C51.436989,87.530739 39.750271,101.464775 32.219986,118.351112 
	C31.816004,119.257042 31.124132,120.034698 30.720974,120.940895 
	C27.049923,129.192505 21.125147,136.228546 18.908451,145.346390 
	C15.766028,158.271973 11.524058,170.926727 7.989264,183.762558 
	C6.881080,187.786682 6.478426,192.012634 5.863931,196.162659 
	C5.408614,199.237671 4.828576,202.342438 4.860606,205.428177 
	C4.894537,208.697144 5.713563,211.949371 5.968890,215.226120 
	C7.040242,228.975311 7.667463,242.770966 9.182984,256.469299 
	C10.096269,264.724213 12.344217,272.831512 13.999934,281.000000 
	C13.999934,281.000000 14.005082,280.992554 13.764736,281.518219 
	C16.529018,288.896942 19.268656,296.284973 22.062840,303.652374 
	C27.444447,317.841980 34.894531,330.884338 44.341835,343.545532 
	C46.215656,346.041290 48.089478,348.537079 49.999329,351.004272 
	C49.999329,351.004272 49.969372,351.046539 50.164375,351.696198 
	C52.435745,354.466278 54.707115,357.236359 57.342838,360.542908 
	C58.548790,361.394775 59.754742,362.246643 61.274097,363.426758 
M234.524597,3.499154 
	C234.524597,3.499154 234.485168,3.513204 234.524597,3.499154 
M430.502991,267.523773 
	C430.502991,267.523773 430.490356,267.484589 430.502991,267.523773 
z"/>
<path fill="#0B0C0E" opacity="1.000000" stroke="none" 
	d="
M43.989239,343.007874 
	C34.894531,330.884338 27.444447,317.841980 22.062840,303.652374 
	C19.268656,296.284973 16.529018,288.896942 13.902903,281.287598 
	C14.041069,281.056976 13.992418,281.005127 13.992418,281.005127 
	C12.344217,272.831512 10.096269,264.724213 9.182984,256.469299 
	C7.667463,242.770966 7.040242,228.975311 5.968890,215.226120 
	C5.713563,211.949371 4.894537,208.697144 4.860606,205.428177 
	C4.828576,202.342438 5.408614,199.237671 5.863931,196.162659 
	C6.478426,192.012634 6.881080,187.786682 7.989264,183.762558 
	C11.524058,170.926727 15.766028,158.271973 18.908451,145.346390 
	C21.125147,136.228546 27.049923,129.192505 30.720974,120.940895 
	C31.124132,120.034698 31.816004,119.257042 32.219986,118.351112 
	C39.750271,101.464775 51.436989,87.530739 63.649975,73.959068 
	C67.681046,69.479553 71.022514,64.170181 75.673744,60.500816 
	C85.932198,52.407890 96.662582,44.877983 107.511780,37.581318 
	C114.886307,32.621548 122.524506,27.889547 130.535126,24.089235 
	C137.564636,20.754368 145.237625,18.735672 152.697662,16.359367 
	C160.777771,13.785538 168.927032,11.424310 177.077805,9.080466 
	C178.790817,8.587873 180.641571,8.574272 182.714417,8.169984 
	C183.000000,8.000009 182.997299,8.003867 182.997299,8.003868 
	C191.444046,6.886499 199.865479,5.464511 208.346512,4.759827 
	C213.916382,4.297029 219.572647,4.855078 225.189545,4.984721 
	C228.489166,5.060879 231.828720,4.898711 235.078995,5.353417 
	C246.837433,6.998393 258.827515,7.871240 270.237274,10.895247 
	C283.688171,14.460235 296.948029,19.222729 309.709045,24.797516 
	C326.989014,32.346481 342.765808,42.609081 356.851562,55.305550 
	C363.643524,61.427658 371.007782,66.996796 377.237305,73.637711 
	C383.337311,80.140541 388.287140,87.716446 393.808929,94.768784 
	C403.783142,107.507652 410.632965,122.062935 417.746368,136.421707 
	C420.823212,142.632431 422.856323,149.385361 425.079803,155.987549 
	C428.117126,165.006439 430.736298,174.109711 431.405792,183.728821 
	C431.803711,189.445908 433.174438,195.094910 434.096954,200.776276 
	C434.256714,201.759857 434.497284,202.755569 434.472809,203.740005 
	C434.104980,218.522171 434.189148,233.339386 433.106689,248.070450 
	C432.515717,256.113403 430.321198,264.117249 428.154999,271.946472 
	C425.232117,282.510468 421.640259,292.889343 417.800476,303.688324 
	C415.333069,305.160980 413.400665,306.292969 411.535156,307.385773 
	C409.151794,304.741180 406.556091,301.860992 404.008240,298.606995 
	C407.601074,285.667084 411.227448,273.123230 414.672882,260.529877 
	C420.603485,238.853043 419.445770,216.811905 417.766449,194.767075 
	C417.670868,193.512436 416.863617,192.318680 416.430237,191.081635 
	C415.604980,188.726059 414.810516,186.359711 414.001648,183.998917 
	C414.000000,184.000000 413.997681,184.003220 414.192596,184.132538 
	C414.879486,184.095016 415.811890,183.880890 415.799805,183.768158 
	C415.357880,179.650986 414.593048,175.731339 410.269806,173.661682 
	C408.096497,172.621246 406.087158,171.238251 404.008423,169.619904 
	C406.870483,164.799011 409.727783,160.368393 412.547241,155.996460 
	C408.687317,154.244843 407.078217,154.608673 404.284119,158.049744 
	C403.268280,159.300781 402.192322,160.774704 400.807556,161.388824 
	C398.886505,162.240784 388.897705,157.681244 388.253296,155.458527 
	C386.198944,148.372314 381.621338,145.198975 374.416077,145.385635 
	C374.203461,145.391144 373.978821,144.932846 373.732117,144.660248 
	C373.894165,143.028687 374.057831,141.380737 374.250397,139.441666 
	C365.185059,143.339523 365.318542,143.314880 363.536346,133.660431 
	C363.307037,132.418411 360.918518,130.893845 359.388916,130.716049 
	C356.289459,130.355804 353.093140,130.828751 349.931946,130.581787 
	C348.730347,127.900146 347.733459,125.461617 346.301147,123.313370 
	C340.886353,115.191963 340.834320,115.228157 334.059937,121.117332 
	C333.955017,121.208580 333.737122,121.169952 333.229553,121.237518 
	C332.445587,120.514557 331.605042,119.471977 330.531891,118.801987 
	C327.768341,117.076691 323.573456,118.291168 323.315399,121.311890 
	C322.670410,128.862030 315.574219,130.142380 311.244476,135.772690 
	C310.146759,132.313950 309.369415,130.048569 308.710114,127.749329 
	C307.318573,122.896317 305.236176,122.376900 301.429840,125.893677 
	C299.571198,127.610939 297.582153,129.187057 295.222870,131.191788 
	C293.788177,128.231400 293.188477,125.812073 291.701599,124.222763 
	C289.807983,122.198746 286.310364,118.940742 285.045380,119.528976 
	C279.051758,122.316162 274.935120,118.691673 270.225616,116.658340 
	C267.949371,115.675575 265.500397,115.092873 263.129761,114.328735 
	C260.743805,113.559669 258.358032,112.790237 255.972168,112.020950 
	C257.446594,109.936516 258.894562,107.832314 260.421967,105.787476 
	C260.671082,105.453957 261.271301,105.382690 262.076935,105.028587 
	C264.029236,109.233894 266.742615,107.793854 269.306854,105.741234 
	C273.588623,102.313782 277.851196,98.850967 281.950836,95.210472 
	C286.335144,91.317215 289.934479,90.941673 294.278717,94.301605 
	C296.457855,95.987015 297.998047,95.589897 299.613678,93.250458 
	C300.872284,91.427971 302.994934,90.227104 304.458191,88.514656 
	C306.231476,86.439354 308.422913,84.276611 308.978302,81.822403 
	C309.203186,80.828545 305.791290,78.424881 303.670868,77.619019 
	C300.129395,76.273087 298.952423,74.561302 300.464233,70.909470 
	C301.059143,69.472481 300.719086,67.648453 300.804779,66.000671 
	C299.227417,66.077332 297.287170,65.619499 296.171814,66.376694 
	C294.989471,67.179398 294.459778,69.089432 293.912750,70.612022 
	C293.685120,71.245605 294.150330,72.128098 294.305389,72.922600 
	C292.675781,73.258720 291.333466,73.535583 289.884094,73.834518 
	C290.127533,75.512283 290.408600,76.813095 290.490845,78.126366 
	C290.848907,83.844460 288.811707,85.850227 283.154266,84.778488 
	C280.424988,84.261467 277.777161,83.033234 275.248810,81.805107 
	C271.772369,80.116447 271.428650,77.375313 274.270660,74.681313 
	C275.830597,73.202591 278.090759,72.291374 279.250092,70.589462 
	C285.806854,60.964062 295.919098,60.460903 305.904358,60.378616 
	C309.091858,60.352348 312.299316,62.746681 315.497620,64.033447 
	C315.400635,64.500412 315.303650,64.967377 315.206635,65.434341 
	C313.111298,66.453873 311.015961,67.473404 308.599304,68.649261 
	C311.637787,69.644997 314.073914,70.707191 316.618134,71.153778 
	C317.712952,71.345955 319.710144,70.590012 320.138519,69.704330 
	C322.858215,64.081184 326.510223,62.688198 332.011719,65.487526 
	C333.176361,66.080124 334.496307,66.894791 335.678833,66.798447 
	C337.352783,66.662071 338.965576,65.774467 340.604492,65.207947 
	C339.892273,63.689747 339.573883,61.663761 338.393921,60.748634 
	C334.864960,58.011730 331.008850,55.694263 327.262543,53.240330 
	C303.953125,37.971916 278.468018,28.148987 250.955673,24.181746 
	C240.250168,22.638027 229.189026,23.714661 218.398331,22.572849 
	C200.940857,20.725601 184.258911,24.486784 167.683807,28.685728 
	C152.698624,32.481903 138.538818,38.702984 124.948517,46.116077 
	C122.466141,47.470135 119.976112,48.853680 117.694046,50.505970 
	C116.973320,51.027794 116.918434,52.469242 116.558823,53.489819 
	C117.559776,53.823685 118.810539,54.715748 119.519989,54.398251 
	C123.317787,52.698635 126.821938,53.129791 130.603333,54.622284 
	C132.704681,55.451672 136.122177,55.404755 135.605103,51.979553 
	C134.962448,47.722569 137.329941,46.882332 140.270325,45.844063 
	C142.936539,44.902599 145.459595,43.468582 148.180008,42.789028 
	C151.887115,41.862991 155.721649,41.446995 159.501541,40.812313 
	C153.450027,47.968811 153.271729,48.659279 157.769089,53.597702 
	C158.812637,54.743587 160.724945,55.056072 161.946793,56.094196 
	C163.068542,57.047272 164.623352,58.545181 164.511169,59.653625 
	C164.334381,61.400192 162.959671,64.434097 162.024231,64.459862 
	C157.062286,64.596542 155.618362,68.614563 152.915634,71.378868 
	C151.754242,72.566734 149.612381,72.795967 147.915970,73.460739 
	C147.401413,71.849228 146.350311,70.198097 146.465912,68.633133 
	C146.946274,62.129150 143.541946,59.369843 137.441223,61.932453 
	C135.055618,62.934528 133.080978,64.874039 130.804031,66.186913 
	C128.409363,67.567665 125.916718,68.797585 123.395691,69.935722 
	C119.335403,71.768768 114.989319,73.090965 111.195320,75.352592 
	C108.214172,77.129669 107.015732,79.859451 110.307167,83.131973 
	C112.862610,85.672752 115.295624,88.781288 111.763893,92.361084 
	C113.477982,94.325874 114.989532,96.058510 116.501083,97.791145 
	C115.778008,97.040298 115.054932,96.289459 114.331848,95.538620 
	C116.981194,94.043091 119.803223,92.776550 122.211021,90.960724 
	C123.522827,89.971436 124.703224,88.141190 124.959099,86.533638 
	C126.076653,79.512512 135.201828,74.182472 141.622726,77.138054 
	C142.573380,77.575645 143.649551,78.495888 143.962372,79.429222 
	C145.134949,82.927773 147.903214,83.531624 150.998245,84.022087 
	C152.620422,84.279152 154.148987,85.127037 155.719818,85.708107 
	C155.601700,86.164024 155.483566,86.619949 155.365448,87.075874 
	C154.260147,87.419144 153.154846,87.762405 151.795715,88.184509 
	C153.679092,90.283432 158.440414,91.476173 153.942871,94.606171 
	C150.471024,97.022346 147.842560,99.385101 149.643463,104.516449 
	C147.176819,103.861755 145.471603,103.163803 143.715591,102.995193 
	C140.276825,102.665031 136.787354,102.347198 133.365738,102.617485 
	C132.067535,102.720039 130.134460,104.298302 129.884048,105.495399 
	C129.630081,106.709358 130.764145,108.691704 131.886444,109.604652 
	C133.615646,111.011314 135.853271,111.792938 139.231659,113.541946 
	C136.310699,115.591560 133.575287,118.896492 131.915115,118.423927 
	C126.252632,116.812141 122.334679,118.800598 117.620064,121.549774 
	C108.353500,126.953247 98.976372,131.724854 95.143394,142.857071 
	C94.333427,145.209488 92.148613,147.250412 90.215683,149.017441 
	C87.085587,151.878830 83.639595,154.394684 81.341240,156.241455 
	C77.086586,155.519485 73.403183,154.021103 69.987366,154.486557 
	C61.410301,155.655289 54.832623,160.573059 50.718960,168.134949 
	C47.428169,174.184219 48.554295,180.285309 51.993542,186.157074 
	C54.531017,190.489243 58.170818,191.130707 62.815636,189.719574 
	C64.493019,194.100815 67.246681,198.163071 67.381454,202.310440 
	C67.645073,210.423019 76.765701,218.425964 84.831604,217.079971 
	C87.467682,216.640060 90.471069,218.401245 93.306473,219.155792 
	C92.438911,221.607620 91.571350,224.059464 90.869987,226.041580 
	C86.095100,223.749817 82.305115,221.819641 78.423508,220.095749 
	C73.524254,217.919937 68.208496,215.963440 66.178886,210.567307 
	C62.550934,200.921661 55.475651,195.436111 46.243195,191.817566 
	C40.886593,189.718109 36.886768,186.109802 36.797684,179.645126 
	C36.678650,171.007355 36.488586,162.370514 36.303841,153.733795 
	C36.281330,152.681335 36.103168,151.632217 35.997143,150.581543 
	C35.478531,150.397202 34.959919,150.212860 34.441311,150.028519 
	C33.311890,152.305664 31.726704,154.469803 31.129459,156.878876 
	C28.022083,169.412994 23.875406,181.876312 22.560852,194.619095 
	C21.034630,209.413773 22.007963,224.472961 22.066551,239.416656 
	C22.074518,241.448715 23.202103,243.452484 23.579493,245.511826 
	C24.462290,250.329117 25.204269,255.172226 26.001631,260.002441 
	C25.999992,260.000000 25.995142,259.996735 25.996857,260.422241 
	C26.122229,262.664551 25.970154,264.551636 26.412773,266.287079 
	C30.265312,281.392242 35.290623,296.084503 42.318829,310.036530 
	C46.182526,317.706512 50.129539,325.334564 53.701077,333.042725 
	C52.575241,334.069275 51.787315,335.034637 50.806355,336.252869 
	C49.409439,337.670685 48.205559,338.835632 46.731789,340.118408 
	C45.975399,340.823395 45.488895,341.410461 44.843933,342.176025 
	C44.466568,342.586334 44.234489,342.804108 43.989239,343.007874 
z"/>
<path fill="#121112" opacity="1.000000" stroke="none" 
	d="
M273.006531,430.990509 
	C270.047729,431.809509 267.121002,432.781433 264.122314,433.410217 
	C260.052216,434.263611 255.942657,435.334320 251.822647,435.468048 
	C239.364929,435.872314 226.878464,436.317627 214.432968,435.886902 
	C203.992401,435.525543 193.363617,436.703857 183.132278,433.303131 
	C181.000931,432.594666 178.688370,432.431427 175.933105,431.801819 
	C172.601227,430.727783 169.795563,429.868896 166.989883,429.009979 
	C166.989883,429.009979 167.000000,429.001221 166.940796,428.643372 
	C164.193985,421.347321 165.547180,417.163269 171.455902,414.831573 
	C171.674133,414.846313 172.059525,415.053345 172.318817,415.257233 
	C174.454727,417.793335 176.331329,420.125549 178.548218,422.880646 
	C179.675583,421.070221 180.400970,419.905334 180.709167,419.410400 
	C189.322159,420.250671 197.278809,421.089142 205.252213,421.714203 
	C206.104584,421.781006 207.054565,420.602692 208.225067,419.944336 
	C208.661285,419.948547 208.831711,420.010437 209.176788,420.251465 
	C209.591064,420.662689 209.841293,420.882751 210.457291,421.268005 
	C216.218399,421.625000 221.624359,421.804779 227.460205,421.983185 
	C231.932358,420.978912 235.974609,419.975983 240.403366,418.961090 
	C245.557480,418.276276 250.567535,419.549072 255.129028,417.000336 
	C256.034515,416.494385 257.395874,416.756470 258.547577,416.748199 
	C261.619141,416.726166 264.816956,417.304413 267.736786,416.641083 
	C274.031036,415.211212 280.291656,413.459778 286.373596,411.298523 
	C313.700348,401.587646 337.505096,386.170380 358.250732,366.015320 
	C361.258728,363.092865 363.480804,359.361450 366.421967,355.964752 
	C369.517456,354.282257 372.257599,352.639343 374.998840,350.998230 
	C375.000000,351.000000 375.003418,351.002167 374.962219,351.362244 
	C374.427521,352.941895 373.710083,354.124847 373.503235,355.391205 
	C373.294220,356.670746 373.591248,358.032867 373.666595,359.358826 
	C375.328735,359.104065 377.074219,359.072968 378.616974,358.497864 
	C379.360596,358.220612 379.549866,356.678375 380.299744,356.140472 
	C381.273499,355.441956 382.555634,355.173340 383.705017,354.719696 
	C383.842285,355.890228 384.182190,357.081879 384.062988,358.225677 
	C383.928711,359.514069 383.380798,360.759338 383.012817,362.023346 
	C366.784760,381.320007 347.596588,397.248901 325.722290,409.533661 
	C313.096313,416.624542 299.357422,421.772888 285.972351,427.448669 
	C282.088593,429.095490 277.696472,429.543488 273.268677,430.770508 
	C273.000000,431.000000 273.006531,430.990509 273.006531,430.990509 
z"/>
<path fill="#0F0E0F" opacity="1.000000" stroke="none" 
	d="
M171.237656,414.816833 
	C165.547180,417.163269 164.193985,421.347321 166.935547,428.649719 
	C160.175140,427.414093 153.000763,426.677429 146.627716,424.019379 
	C136.137360,419.644073 126.028236,414.279999 116.005089,408.875275 
	C97.088768,398.675110 80.325035,385.576904 65.538307,369.983826 
	C64.111763,368.479492 63.201557,366.485474 62.398766,364.322235 
	C66.345528,362.305267 69.945190,360.684875 73.603775,359.037933 
	C72.527733,356.547546 71.765450,354.783295 71.102493,352.809387 
	C72.223236,352.755157 73.244659,352.910583 74.180801,353.410522 
	C75.872345,356.282349 77.184822,359.392456 79.503387,361.239868 
	C92.045815,371.233398 104.785774,380.982849 117.605423,390.619873 
	C119.286934,391.883881 121.816429,392.019867 124.137451,392.980865 
	C131.344910,400.373322 139.126770,405.799988 149.812805,405.275452 
	C151.170853,406.496552 152.417908,407.573456 153.864304,408.152710 
	C159.621674,410.458344 165.441162,412.608887 171.237656,414.816833 
z"/>
<path fill="#0E0E10" opacity="1.000000" stroke="none" 
	d="
M383.295349,361.839233 
	C383.380798,360.759338 383.928711,359.514069 384.062988,358.225677 
	C384.182190,357.081879 383.842285,355.890228 383.705017,354.719696 
	C382.555634,355.173340 381.273499,355.441956 380.299744,356.140472 
	C379.549866,356.678375 379.360596,358.220612 378.616974,358.497864 
	C377.074219,359.072968 375.328735,359.104065 373.666595,359.358826 
	C373.591248,358.032867 373.294220,356.670746 373.503235,355.391205 
	C373.710083,354.124847 374.427521,352.941895 374.994446,351.341980 
	C375.067932,350.961578 374.997711,350.996460 374.997711,350.996460 
	C372.257599,352.639343 369.517456,354.282257 366.353882,355.734985 
	C366.904266,354.094116 367.878113,352.643402 369.197632,351.095703 
	C371.279663,348.342468 373.016022,345.686188 375.076172,343.046875 
	C376.575439,342.678467 378.252716,342.658813 378.843872,341.847626 
	C382.357788,337.025909 385.948608,332.208130 388.895416,327.036774 
	C394.149170,317.817017 398.962769,308.346466 403.960419,298.980774 
	C406.556091,301.860992 409.151794,304.741180 411.535156,307.385773 
	C413.400665,306.292969 415.333069,305.160980 417.639465,304.011902 
	C412.450989,318.816620 405.078857,332.684875 395.845978,345.535767 
	C391.907623,351.017395 387.676178,356.288422 383.295349,361.839233 
z"/>
<path fill="#0C0D0F" opacity="1.000000" stroke="none" 
	d="
M71.003166,353.019043 
	C71.765450,354.783295 72.527733,356.547546 73.603775,359.037933 
	C69.945190,360.684875 66.345528,362.305267 62.359158,363.965210 
	C61.726933,363.827484 61.494148,363.634796 61.025787,362.926331 
	C59.511143,361.619446 58.244808,360.812927 56.978481,360.006439 
	C54.707115,357.236359 52.435745,354.466278 50.368065,351.183594 
	C52.706871,348.286316 52.271309,346.171997 49.531452,343.318573 
	C49.710751,346.521423 49.837025,348.777130 49.963303,351.032837 
	C48.089478,348.537079 46.215656,346.041290 44.165535,343.276703 
	C44.234489,342.804108 44.466568,342.586334 45.113441,342.057983 
	C46.028160,341.174469 46.514919,340.587524 47.001678,340.000549 
	C48.205559,338.835632 49.409439,337.670685 51.118019,336.169739 
	C52.753185,335.212891 53.883652,334.592041 55.013733,333.979828 
	C55.013344,333.988495 55.004086,333.986542 55.160149,334.165894 
	C55.532043,334.577911 55.761505,334.796295 56.251907,335.186829 
	C56.999741,336.248810 57.500267,337.124420 57.877903,338.254578 
	C57.641541,340.788635 57.869038,342.749542 61.266121,342.198547 
	C62.026577,343.599670 62.528660,344.792328 62.714981,346.130066 
	C61.869465,347.924957 60.515873,350.729584 60.944786,351.035614 
	C63.564766,352.904694 66.391663,355.229156 70.250961,353.004822 
	C70.668854,353.012115 70.836006,353.015594 71.003166,353.019043 
z"/>
<path fill="#0F0E0F" opacity="1.000000" stroke="none" 
	d="
M167.155090,429.312775 
	C169.795563,429.868896 172.601227,430.727783 175.698151,431.784668 
	C172.211929,434.445007 169.590363,432.673920 167.155090,429.312775 
z"/>
<path fill="#0F0E0F" opacity="1.000000" stroke="none" 
	d="
M57.160660,360.274658 
	C58.244808,360.812927 59.511143,361.619446 60.869083,362.762207 
	C59.754742,362.246643 58.548790,361.394775 57.160660,360.274658 
z"/>
<path fill="#0B0C0E" opacity="1.000000" stroke="none" 
	d="
M183.001892,7.998712 
	C183.003799,7.997416 182.961243,7.937323 182.979279,7.970595 
	C182.997299,8.003867 183.000000,8.000009 183.001892,7.998712 
z"/>
<path fill="#121112" opacity="1.000000" stroke="none" 
	d="
M272.995361,431.003113 
	C272.990692,431.006256 273.039429,431.059143 273.022980,431.024841 
	C273.006531,430.990509 273.000000,431.000000 272.995361,431.003113 
z"/>
<path fill="#0B0C0E" opacity="1.000000" stroke="none" 
	d="
M234.504883,3.506179 
	C234.485168,3.513204 234.524597,3.499154 234.504883,3.506179 
z"/>
<path fill="#0B0C0E" opacity="1.000000" stroke="none" 
	d="
M430.496674,267.504181 
	C430.490356,267.484589 430.502991,267.523773 430.496674,267.504181 
z"/>
<path fill="#010101" opacity="1.000000" stroke="none" 
	d="
M71.102493,352.809387 
	C70.836006,353.015594 70.668854,353.012115 70.105713,352.709778 
	C67.483398,350.268951 65.257072,348.126984 63.030746,345.985016 
	C62.528660,344.792328 62.026577,343.599670 61.179428,341.888062 
	C59.889843,340.246124 58.945316,339.123047 58.000790,338.000000 
	C57.500267,337.124420 56.999741,336.248810 56.097618,335.005798 
	C55.482750,334.402649 55.252106,334.185364 55.004086,333.986542 
	C55.004086,333.986542 55.013344,333.988495 54.862068,333.804596 
	C54.499554,333.394257 54.275620,333.181213 54.038982,332.981506 
	C50.129539,325.334564 46.182526,317.706512 42.318829,310.036530 
	C35.290623,296.084503 30.265312,281.392242 26.412773,266.287079 
	C25.970154,264.551636 26.122229,262.664551 26.029795,260.404358 
	C26.061020,259.960938 26.003267,260.004883 26.003269,260.004883 
	C25.204269,255.172226 24.462290,250.329117 23.579493,245.511826 
	C23.202103,243.452484 22.074518,241.448715 22.066551,239.416656 
	C22.007963,224.472961 21.034630,209.413773 22.560852,194.619095 
	C23.875406,181.876312 28.022083,169.412994 31.129459,156.878876 
	C31.726704,154.469803 33.311890,152.305664 34.441311,150.028519 
	C34.959919,150.212860 35.478531,150.397202 35.997143,150.581543 
	C36.103168,151.632217 36.281330,152.681335 36.303841,153.733795 
	C36.488586,162.370514 36.678650,171.007355 36.797684,179.645126 
	C36.886768,186.109802 40.886593,189.718109 46.243195,191.817566 
	C55.475651,195.436111 62.550934,200.921661 66.178886,210.567307 
	C68.208496,215.963440 73.524254,217.919937 78.423508,220.095749 
	C82.305115,221.819641 86.095100,223.749817 90.869987,226.041580 
	C91.571350,224.059464 92.438911,221.607620 93.306473,219.155792 
	C90.471069,218.401245 87.467682,216.640060 84.831604,217.079971 
	C76.765701,218.425964 67.645073,210.423019 67.381454,202.310440 
	C67.246681,198.163071 64.493019,194.100815 62.815636,189.719574 
	C58.170818,191.130707 54.531017,190.489243 51.993542,186.157074 
	C48.554295,180.285309 47.428169,174.184219 50.718960,168.134949 
	C54.832623,160.573059 61.410301,155.655289 69.987366,154.486557 
	C73.403183,154.021103 77.086586,155.519485 81.341240,156.241455 
	C83.639595,154.394684 87.085587,151.878830 90.215683,149.017441 
	C92.148613,147.250412 94.333427,145.209488 95.143394,142.857071 
	C98.976372,131.724854 108.353500,126.953247 117.620064,121.549774 
	C122.334679,118.800598 126.252632,116.812141 131.915115,118.423927 
	C133.575287,118.896492 136.310699,115.591560 139.231659,113.541946 
	C135.853271,111.792938 133.615646,111.011314 131.886444,109.604652 
	C130.764145,108.691704 129.630081,106.709358 129.884048,105.495399 
	C130.134460,104.298302 132.067535,102.720039 133.365738,102.617485 
	C136.787354,102.347198 140.276825,102.665031 143.715591,102.995193 
	C145.471603,103.163803 147.176819,103.861755 149.643463,104.516449 
	C147.842560,99.385101 150.471024,97.022346 153.942871,94.606171 
	C158.440414,91.476173 153.679092,90.283432 151.795715,88.184509 
	C153.154846,87.762405 154.260147,87.419144 155.365448,87.075874 
	C155.483566,86.619949 155.601700,86.164024 155.719818,85.708107 
	C154.148987,85.127037 152.620422,84.279152 150.998245,84.022087 
	C147.903214,83.531624 145.134949,82.927773 143.962372,79.429222 
	C143.649551,78.495888 142.573380,77.575645 141.622726,77.138054 
	C135.201828,74.182472 126.076653,79.512512 124.959099,86.533638 
	C124.703224,88.141190 123.522827,89.971436 122.211021,90.960724 
	C119.803223,92.776550 116.981194,94.043091 114.331848,95.538620 
	C115.054932,96.289459 115.778008,97.040298 116.501083,97.791145 
	C114.989532,96.058510 113.477982,94.325874 111.763893,92.361084 
	C115.295624,88.781288 112.862610,85.672752 110.307167,83.131973 
	C107.015732,79.859451 108.214172,77.129669 111.195320,75.352592 
	C114.989319,73.090965 119.335403,71.768768 123.395691,69.935722 
	C125.916718,68.797585 128.409363,67.567665 130.804031,66.186913 
	C133.080978,64.874039 135.055618,62.934528 137.441223,61.932453 
	C143.541946,59.369843 146.946274,62.129150 146.465912,68.633133 
	C146.350311,70.198097 147.401413,71.849228 147.915970,73.460739 
	C149.612381,72.795967 151.754242,72.566734 152.915634,71.378868 
	C155.618362,68.614563 157.062286,64.596542 162.024231,64.459862 
	C162.959671,64.434097 164.334381,61.400192 164.511169,59.653625 
	C164.623352,58.545181 163.068542,57.047272 161.946793,56.094196 
	C160.724945,55.056072 158.812637,54.743587 157.769089,53.597702 
	C153.271729,48.659279 153.450027,47.968811 159.501541,40.812313 
	C155.721649,41.446995 151.887115,41.862991 148.180008,42.789028 
	C145.459595,43.468582 142.936539,44.902599 140.270325,45.844063 
	C137.329941,46.882332 134.962448,47.722569 135.605103,51.979553 
	C136.122177,55.404755 132.704681,55.451672 130.603333,54.622284 
	C126.821938,53.129791 123.317787,52.698635 119.519989,54.398251 
	C118.810539,54.715748 117.559776,53.823685 116.558823,53.489819 
	C116.918434,52.469242 116.973320,51.027794 117.694046,50.505970 
	C119.976112,48.853680 122.466141,47.470135 124.948517,46.116077 
	C138.538818,38.702984 152.698624,32.481903 167.683807,28.685728 
	C184.258911,24.486784 200.940857,20.725601 218.398331,22.572849 
	C229.189026,23.714661 240.250168,22.638027 250.955673,24.181746 
	C278.468018,28.148987 303.953125,37.971916 327.262543,53.240330 
	C331.008850,55.694263 334.864960,58.011730 338.393921,60.748634 
	C339.573883,61.663761 339.892273,63.689747 340.604492,65.207947 
	C338.965576,65.774467 337.352783,66.662071 335.678833,66.798447 
	C334.496307,66.894791 333.176361,66.080124 332.011719,65.487526 
	C326.510223,62.688198 322.858215,64.081184 320.138519,69.704330 
	C319.710144,70.590012 317.712952,71.345955 316.618134,71.153778 
	C314.073914,70.707191 311.637787,69.644997 308.599304,68.649261 
	C311.015961,67.473404 313.111298,66.453873 315.206635,65.434341 
	C315.303650,64.967377 315.400635,64.500412 315.497620,64.033447 
	C312.299316,62.746681 309.091858,60.352348 305.904358,60.378616 
	C295.919098,60.460903 285.806854,60.964062 279.250092,70.589462 
	C278.090759,72.291374 275.830597,73.202591 274.270660,74.681313 
	C271.428650,77.375313 271.772369,80.116447 275.248810,81.805107 
	C277.777161,83.033234 280.424988,84.261467 283.154266,84.778488 
	C288.811707,85.850227 290.848907,83.844460 290.490845,78.126366 
	C290.408600,76.813095 290.127533,75.512283 289.884094,73.834518 
	C291.333466,73.535583 292.675781,73.258720 294.305389,72.922600 
	C294.150330,72.128098 293.685120,71.245605 293.912750,70.612022 
	C294.459778,69.089432 294.989471,67.179398 296.171814,66.376694 
	C297.287170,65.619499 299.227417,66.077332 300.804779,66.000671 
	C300.719086,67.648453 301.059143,69.472481 300.464233,70.909470 
	C298.952423,74.561302 300.129395,76.273087 303.670868,77.619019 
	C305.791290,78.424881 309.203186,80.828545 308.978302,81.822403 
	C308.422913,84.276611 306.231476,86.439354 304.458191,88.514656 
	C302.994934,90.227104 300.872284,91.427971 299.613678,93.250458 
	C297.998047,95.589897 296.457855,95.987015 294.278717,94.301605 
	C289.934479,90.941673 286.335144,91.317215 281.950836,95.210472 
	C277.851196,98.850967 273.588623,102.313782 269.306854,105.741234 
	C266.742615,107.793854 264.029236,109.233894 262.076935,105.028587 
	C261.271301,105.382690 260.671082,105.453957 260.421967,105.787476 
	C258.894562,107.832314 257.446594,109.936516 255.972168,112.020950 
	C258.358032,112.790237 260.743805,113.559669 263.129761,114.328735 
	C265.500397,115.092873 267.949371,115.675575 270.225616,116.658340 
	C274.935120,118.691673 279.051758,122.316162 285.045380,119.528976 
	C286.310364,118.940742 289.807983,122.198746 291.701599,124.222763 
	C293.188477,125.812073 293.788177,128.231400 295.222870,131.191788 
	C297.582153,129.187057 299.571198,127.610939 301.429840,125.893677 
	C305.236176,122.376900 307.318573,122.896317 308.710114,127.749329 
	C309.369415,130.048569 310.146759,132.313950 311.244476,135.772690 
	C315.574219,130.142380 322.670410,128.862030 323.315399,121.311890 
	C323.573456,118.291168 327.768341,117.076691 330.531891,118.801987 
	C331.605042,119.471977 332.445587,120.514557 333.229553,121.237518 
	C333.737122,121.169952 333.955017,121.208580 334.059937,121.117332 
	C340.834320,115.228157 340.886353,115.191963 346.301147,123.313370 
	C347.733459,125.461617 348.730347,127.900146 349.668091,130.665207 
	C348.932953,131.405563 348.456879,131.686081 347.662170,132.003418 
	C346.559723,132.350693 345.775818,132.661133 344.555664,132.973038 
	C339.078522,132.655197 334.037720,132.335876 328.755249,131.932114 
	C326.962585,133.188660 325.177795,134.348679 323.947510,135.937943 
	C323.199524,136.904144 323.307495,138.532974 323.030945,139.864166 
	C324.352997,139.903503 325.675049,139.942841 327.343872,139.889648 
	C330.138123,139.528305 332.585571,139.259491 335.072815,139.137207 
	C335.404938,139.187546 335.697235,139.091339 336.322754,138.998840 
	C337.100250,139.007675 337.544556,139.012802 338.122955,139.350220 
	C338.847290,141.790924 339.437531,143.899338 340.155609,146.345428 
	C340.493713,148.106506 340.704041,149.529907 340.639191,151.103516 
	C339.899963,152.152328 339.435913,153.050949 338.653198,154.050323 
	C335.549744,155.422729 332.764954,156.694397 329.595337,158.006744 
	C324.248047,160.121033 319.243622,162.100891 314.336121,164.297379 
	C310.292267,166.107330 306.559052,167.452560 302.437775,164.106415 
	C300.515594,162.545761 297.719360,162.061630 295.319305,161.089554 
	C295.045715,161.633728 294.772125,162.177917 294.498535,162.722092 
	C295.706512,163.675430 296.942413,164.595688 298.118164,165.587280 
	C308.754669,174.557709 320.188568,182.764801 329.773468,192.746704 
	C338.655060,201.996140 342.562317,213.883255 338.558502,227.405045 
	C350.486694,229.618347 361.492798,234.213562 371.442535,243.431732 
	C375.719696,234.642502 379.742767,226.731552 383.399506,218.654755 
	C384.571381,216.066437 382.840546,215.212738 380.217255,215.415207 
	C375.021088,215.816254 370.492920,214.313202 366.955444,210.231430 
	C365.373810,208.406464 363.452576,206.877701 361.848999,205.069443 
	C357.617981,200.298309 353.254730,195.618088 349.376617,190.569473 
	C346.764038,187.168289 345.262726,182.900009 342.583282,179.567123 
	C339.407806,175.617218 338.983795,172.375595 343.433136,169.026428 
	C346.015503,170.229202 348.515289,171.087402 350.312408,172.719330 
	C352.237396,174.467316 353.543365,176.914673 355.045227,179.107666 
	C359.917877,186.222595 363.178772,194.416306 371.433380,199.075775 
	C375.636993,201.448593 379.710327,203.196854 383.636139,200.267792 
	C386.529877,198.108795 389.274353,195.508972 391.389374,192.599625 
	C395.236298,187.307907 392.788879,179.164413 386.842468,178.736481 
	C379.473267,178.206146 373.973175,176.462585 370.871155,169.097198 
	C368.801208,164.182281 365.679413,159.710373 363.435059,155.028046 
	C368.163544,153.988617 372.245209,154.419449 376.153870,157.283508 
	C377.889496,159.370499 379.441833,161.187378 381.053406,163.337769 
	C382.075867,164.439499 383.039062,165.207733 384.317719,166.186798 
	C388.747955,166.933502 392.862762,167.469376 396.719910,168.176697 
	C395.430420,168.901642 394.398529,169.455154 393.366669,170.008667 
	C393.587006,170.450607 393.807343,170.892548 394.027710,171.334488 
	C395.687317,170.560394 397.346954,169.786316 399.362732,169.087982 
	C401.147125,169.445908 402.575378,169.728043 404.003662,170.010193 
	C406.087158,171.238251 408.096497,172.621246 410.269806,173.661682 
	C414.593048,175.731339 415.357880,179.650986 415.799805,183.768158 
	C415.811890,183.880890 414.879486,184.095016 414.174286,184.099182 
	C413.961060,183.936493 414.003265,183.997833 414.003265,183.997833 
	C414.810516,186.359711 415.604980,188.726059 416.430237,191.081635 
	C416.863617,192.318680 417.670868,193.512436 417.766449,194.767075 
	C419.445770,216.811905 420.603485,238.853043 414.672882,260.529877 
	C411.227448,273.123230 407.601074,285.667084 404.008240,298.606995 
	C398.962769,308.346466 394.149170,317.817017 388.895416,327.036774 
	C385.948608,332.208130 382.357788,337.025909 378.843872,341.847626 
	C378.252716,342.658813 376.575439,342.678467 374.730530,342.932129 
	C361.390320,340.224670 348.781525,337.271851 336.031647,335.178101 
	C323.010986,333.039856 309.877472,331.495087 296.746582,330.145844 
	C281.321869,328.560913 265.867157,326.761261 250.389069,326.314545 
	C223.076981,325.526276 195.743958,325.987823 168.637238,330.128204 
	C153.871902,332.383514 138.922241,334.009308 124.470985,337.593384 
	C107.500732,341.802185 90.981125,347.828094 74.266083,353.065979 
	C73.244659,352.910583 72.223236,352.755157 71.102493,352.809387 
M128.217987,239.929749 
	C122.484840,239.278717 116.753441,238.091003 111.018250,238.072449 
	C89.721222,238.003510 70.891220,255.643707 69.000015,277.749146 
	C67.478500,290.122925 71.144814,300.986115 78.779358,310.601440 
	C85.202972,318.691650 93.930161,324.109894 103.602135,326.214325 
	C115.454308,328.793060 127.437225,327.023163 138.318649,320.724792 
	C147.299454,315.526520 154.225845,308.773285 156.820328,297.827942 
	C159.608932,297.737640 162.450760,297.262329 165.174866,297.638824 
	C170.522964,298.377869 175.767700,300.085114 181.123886,300.495575 
	C189.797546,301.160309 198.535858,300.928070 207.230042,301.390900 
	C219.920013,302.066498 232.205780,308.181000 245.285980,304.175690 
	C246.364777,303.845337 247.847229,304.627380 249.085144,305.056793 
	C255.889725,307.417297 262.117615,305.302582 265.120026,298.919861 
	C266.406097,296.185913 266.691101,292.875305 266.950256,289.786346 
	C267.474396,283.537964 267.670349,277.262085 268.039490,271.063141 
	C268.039490,271.063141 267.997437,271.001709 268.037933,270.267151 
	C269.741699,267.709015 271.300201,265.037781 273.183350,262.619293 
	C276.008453,258.991058 279.061249,255.540176 282.562805,251.636444 
	C284.709045,249.416962 286.855286,247.197464 289.712402,244.903397 
	C291.011627,243.977173 292.241608,242.926941 293.626343,242.153870 
	C295.693695,240.999695 297.870026,240.040771 300.252197,239.628418 
	C300.507111,242.088455 300.762024,244.548508 300.489410,247.460632 
	C291.380859,251.548569 288.668152,260.605682 284.431366,268.406433 
	C283.180786,270.708954 282.384064,273.527466 282.305115,276.137543 
	C282.165588,280.748688 282.736633,285.381317 282.752289,290.293671 
	C282.660645,290.608765 282.569000,290.923828 282.477386,291.238922 
	C282.575775,291.263306 282.674164,291.287689 282.772552,291.312042 
	C282.844116,290.870331 282.915710,290.428589 283.340668,290.546997 
	C283.850830,294.082672 283.185028,298.527161 285.086517,300.987610 
	C291.369446,309.117493 297.372528,317.420258 306.114502,323.645966 
	C313.700195,329.048126 322.044220,331.218689 329.888611,329.269043 
	C336.809998,327.548798 344.291901,325.854919 350.705841,321.179138 
	C359.062225,315.087280 365.498932,308.109802 369.112762,298.376160 
	C372.741943,288.601135 373.032501,279.367523 369.503815,269.130676 
	C364.034149,253.263000 350.431671,247.037140 338.021545,239.057297 
	C331.006348,239.689117 323.991119,240.320923 316.435394,240.542938 
	C310.420380,232.568115 310.852905,230.510788 318.999023,224.804016 
	C320.534332,223.728470 322.429657,221.269150 322.151367,219.838989 
	C321.087402,214.371155 320.309235,208.330948 317.357635,203.872803 
	C313.309387,197.758209 307.466797,192.802933 302.218170,187.524841 
	C299.889832,185.183441 297.219574,183.150574 294.550171,181.187546 
	C290.858307,178.472641 287.020721,175.955872 283.245544,173.354263 
	C282.828644,173.719513 282.411743,174.084763 281.994843,174.450027 
	C282.711792,176.149017 283.678619,177.792267 284.073669,179.563080 
	C284.449188,181.246307 284.653320,183.188202 284.180939,184.795380 
	C283.122040,188.397873 281.596069,191.863083 280.388428,195.046432 
	C283.229218,196.885529 284.867950,197.946411 286.506683,199.007294 
	C286.285736,199.464340 286.064789,199.921371 285.843842,200.378403 
	C284.228912,199.919540 282.614014,199.460678 280.762634,198.873093 
	C280.491089,198.796005 280.237823,198.840866 279.251862,198.931519 
	C275.121399,197.199203 270.990967,195.466904 266.061249,193.399399 
	C263.882568,193.538116 260.453094,193.756470 256.422455,193.620743 
	C255.285004,193.406616 254.147552,193.192490 252.496597,192.535568 
	C251.016464,192.000946 249.536346,191.466339 248.035187,190.157684 
	C247.365128,188.426514 246.695068,186.695343 246.032379,184.174423 
	C246.030060,183.121399 246.027740,182.068359 246.530411,180.588196 
	C247.029556,179.396469 247.528687,178.204742 248.942184,177.012039 
	C252.422119,177.111801 255.911346,177.087311 259.379333,177.346756 
	C262.759888,177.599655 264.898010,175.728790 264.685425,172.873260 
	C264.362762,168.539200 262.951538,164.286163 261.646851,159.419220 
	C259.557068,156.560059 258.758392,153.004059 261.627960,150.946274 
	C263.484100,149.615234 266.997253,150.292664 269.715942,150.573303 
	C271.516602,150.759186 273.225281,151.836014 274.904785,152.486725 
	C275.388092,151.527252 275.670715,151.229309 275.654633,150.948502 
	C275.607666,150.129486 275.566986,149.273911 275.302673,148.509109 
	C272.276123,139.751724 266.201599,133.243134 258.831024,128.191162 
	C255.497314,125.906158 250.524475,123.697250 246.964584,124.483658 
	C235.433304,127.030991 228.735733,131.690765 227.726089,145.583817 
	C227.589844,147.329437 227.536041,149.086838 227.288834,150.816605 
	C227.119217,152.003387 226.972229,153.422470 226.243622,154.206924 
	C225.859680,154.620285 224.251114,153.893173 223.194580,153.685577 
	C221.515503,153.355637 219.774704,152.567078 218.166306,152.779037 
	C209.630127,153.903976 201.906876,156.946243 195.390625,162.825317 
	C193.834351,164.229416 191.678696,164.973984 189.787186,166.000687 
	C185.593704,168.276917 180.629547,169.761002 177.354996,172.971069 
	C170.666351,179.527969 164.598083,186.787033 158.833008,194.191864 
	C155.118469,198.962921 155.948288,207.212540 160.698654,210.967285 
	C166.899185,215.868195 173.903366,219.742599 180.453018,224.217819 
	C182.320343,225.493729 183.810272,227.321991 185.473251,228.896973 
	C183.311005,230.222061 181.176666,231.596954 178.966049,232.835739 
	C178.441208,233.129852 177.660782,232.967911 176.360840,232.711563 
	C170.586823,229.785004 164.683319,227.081757 159.091827,223.840363 
	C156.170212,222.146713 153.770248,219.537674 151.183136,217.286392 
	C147.815994,214.356339 144.961075,210.212021 141.060852,208.650299 
	C132.903519,205.384003 124.440483,202.407684 115.323921,202.848038 
	C114.198654,202.902390 112.246078,202.708984 112.035034,202.132858 
	C110.388878,197.639069 107.596413,200.313065 105.157272,200.815521 
	C95.631950,202.777695 95.292709,203.077667 101.633392,210.323471 
	C114.802055,225.371887 129.625900,237.696869 150.937943,239.337738 
	C156.059921,239.732086 161.007721,242.388855 165.659180,244.586777 
	C161.025513,256.045776 161.025513,256.045776 149.638702,255.440033 
	C142.753815,250.289825 135.868927,245.139618 129.047043,239.955627 
	C129.047043,239.955627 129.011108,240.016403 128.217987,239.929749 
M199.887085,63.395821 
	C201.001846,62.669338 202.026978,61.692642 203.245605,61.256065 
	C212.761261,57.847027 217.979675,49.066208 225.636108,43.332691 
	C227.138077,42.207954 227.612595,39.711174 228.560989,37.847202 
	C226.726517,36.943508 224.952164,35.450226 223.045364,35.255798 
	C218.745514,34.817352 214.380264,34.985504 210.041412,34.973171 
	C204.421356,34.957191 198.798279,34.904999 193.181976,35.062881 
	C189.587723,35.163918 185.887360,35.173531 182.456787,36.072304 
	C180.299530,36.637482 177.231262,38.550308 176.945328,40.256371 
	C176.556076,42.578869 177.909286,45.675423 179.458801,47.727711 
	C181.775879,50.796589 184.657944,54.657413 181.571014,57.213531 
	C176.019241,61.810673 175.376221,65.608559 180.273254,70.627563 
	C180.596466,70.958824 180.714645,71.517616 180.858902,71.991661 
	C182.040649,75.874825 184.042145,74.851395 186.416733,73.068764 
	C190.642303,69.896576 194.975784,66.868118 199.887085,63.395821 
M263.508545,90.828377 
	C262.212219,88.820251 260.915894,86.812126 259.209259,84.168411 
	C256.793610,88.863968 259.005554,91.763351 261.475067,94.320053 
	C262.224548,95.096016 264.034790,94.847389 265.359192,95.068031 
	C264.915771,93.807632 264.472351,92.547226 263.508545,90.828377 
M227.468567,63.541348 
	C227.452484,64.500214 227.436386,65.459084 227.420303,66.417946 
	C229.708633,66.417946 231.996979,66.417946 234.285309,66.417946 
	C234.359482,65.687263 234.433655,64.956589 234.507812,64.225906 
	C232.390976,63.901997 230.274139,63.578087 227.468567,63.541348 
M276.496246,154.474457 
	C276.496246,154.474457 276.507629,154.510773 276.496246,154.474457 
M280.503601,174.523956 
	C280.503601,174.523956 280.490692,174.483887 280.503601,174.523956 
M160.504410,298.525452 
	C160.504410,298.525452 160.490555,298.486023 160.504410,298.525452 
M263.477997,192.504166 
	C263.477997,192.504166 263.514557,192.492996 263.477997,192.504166 
M275.502655,195.529526 
	C275.502655,195.529526 275.489990,195.490280 275.502655,195.529526 
z"/>
<path fill="#0E0E10" opacity="1.000000" stroke="none" 
	d="
M328.996887,132.016571 
	C334.037720,132.335876 339.078522,132.655197 344.727783,133.195480 
	C346.217743,132.933182 347.099243,132.449890 347.980774,131.966614 
	C348.456879,131.686081 348.932953,131.405563 349.672913,131.041611 
	C353.093140,130.828751 356.289459,130.355804 359.388916,130.716049 
	C360.918518,130.893845 363.307037,132.418411 363.536346,133.660431 
	C365.318542,143.314880 365.185059,143.339523 374.250397,139.441666 
	C374.057831,141.380737 373.894165,143.028687 373.732117,144.660248 
	C373.978821,144.932846 374.203461,145.391144 374.416077,145.385635 
	C381.621338,145.198975 386.198944,148.372314 388.253296,155.458527 
	C388.897705,157.681244 398.886505,162.240784 400.807556,161.388824 
	C402.192322,160.774704 403.268280,159.300781 404.284119,158.049744 
	C407.078217,154.608673 408.687317,154.244843 412.547241,155.996460 
	C409.727783,160.368393 406.870483,164.799011 404.008423,169.619904 
	C402.575378,169.728043 401.147125,169.445908 399.133972,168.916504 
	C398.025238,168.447922 397.501404,168.226593 396.977539,168.005249 
	C392.862762,167.469376 388.747955,166.933502 384.199646,165.929657 
	C382.842133,164.642548 381.918152,163.823410 380.994202,163.004272 
	C379.441833,161.187378 377.889496,159.370499 376.398804,157.071747 
	C377.618835,155.755188 378.777191,154.920456 379.974152,154.057922 
	C378.480560,152.645599 377.102081,151.505447 375.915771,150.191742 
	C371.125580,144.887039 368.714539,144.683685 363.226959,149.206757 
	C362.500122,149.805847 361.677734,150.289047 360.913116,150.816589 
	C361.715668,152.419098 362.371979,153.729660 363.028320,155.040222 
	C365.679413,159.710373 368.801208,164.182281 370.871155,169.097198 
	C373.973175,176.462585 379.473267,178.206146 386.842468,178.736481 
	C392.788879,179.164413 395.236298,187.307907 391.389374,192.599625 
	C389.274353,195.508972 386.529877,198.108795 383.636139,200.267792 
	C379.710327,203.196854 375.636993,201.448593 371.433380,199.075775 
	C363.178772,194.416306 359.917877,186.222595 355.045227,179.107666 
	C353.543365,176.914673 352.237396,174.467316 350.312408,172.719330 
	C348.515289,171.087402 346.015503,170.229202 343.082397,168.882080 
	C340.332733,168.154175 338.338623,167.149216 336.315826,167.087646 
	C332.617157,166.975098 330.933105,165.434937 330.902130,161.746017 
	C330.891541,160.483536 330.304047,159.225906 329.980133,157.966064 
	C332.764954,156.694397 335.549744,155.422729 338.850159,154.298584 
	C340.524933,154.778824 341.684052,155.111557 342.843201,155.444290 
	C343.076599,155.035919 343.309998,154.627548 343.543396,154.219177 
	C342.667053,153.130554 341.790680,152.041946 340.914337,150.953323 
	C340.704041,149.529907 340.493713,148.106506 340.508911,146.323364 
	C341.564209,144.786789 343.293182,143.356628 343.047058,142.482864 
	C342.428375,140.286743 341.409027,137.588501 337.988861,139.017914 
	C337.544556,139.012802 337.100250,139.007675 336.083679,138.997940 
	C335.511414,138.993332 335.033020,138.990677 335.033020,138.990662 
	C332.585571,139.259491 330.138123,139.528305 327.278076,139.601379 
	C327.575958,136.942612 328.286407,134.479584 328.996887,132.016571 
M352.643372,148.878799 
	C350.807800,149.286545 348.897095,149.520340 347.201813,150.252792 
	C346.873383,150.394699 346.975983,153.149902 347.597748,153.532349 
	C348.816559,154.282013 351.423828,154.905487 351.873535,154.334457 
	C352.835297,153.113297 352.788971,151.098160 352.643372,148.878799 
M350.651337,132.381073 
	C350.568359,132.479279 350.485413,132.577469 350.402435,132.675674 
	C350.503632,132.628098 350.604797,132.580521 350.651337,132.381073 
z"/>
<path fill="#0F0E0F" opacity="1.000000" stroke="none" 
	d="
M53.701077,333.042725 
	C54.275620,333.181213 54.499554,333.394257 54.862457,333.795929 
	C53.883652,334.592041 52.753185,335.212891 51.311050,335.916870 
	C51.787315,335.034637 52.575241,334.069275 53.701077,333.042725 
z"/>
<path fill="#0F0E0F" opacity="1.000000" stroke="none" 
	d="
M46.731789,340.118408 
	C46.514919,340.587524 46.028160,341.174469 45.271896,341.879517 
	C45.488895,341.410461 45.975399,340.823395 46.731789,340.118408 
z"/>
<path fill="#000000" opacity="1.000000" stroke="none" 
	d="
M13.996176,281.002563 
	C13.992418,281.005127 14.041069,281.056976 14.023075,281.024780 
	C14.005082,280.992554 13.999934,281.000000 13.996176,281.002563 
z"/>
<path fill="#F7480A" opacity="1.000000" stroke="none" 
	d="
M171.455902,414.831604 
	C165.441162,412.608887 159.621674,410.458344 153.864304,408.152710 
	C152.417908,407.573456 151.170853,406.496552 150.100815,405.089172 
	C171.069305,391.371338 192.819290,380.209442 215.696762,371.424988 
	C234.024887,364.387329 252.647400,358.082642 272.158447,355.027527 
	C283.176239,353.302399 294.193176,351.465790 305.275452,350.293030 
	C313.752197,349.395935 322.330170,349.192841 330.864258,349.173004 
	C339.607635,349.152679 348.352386,349.730774 357.059326,350.015503 
	C357.022095,349.984070 356.947449,349.921448 356.871429,350.205200 
	C355.813141,351.299133 354.956268,352.486023 353.829224,352.861115 
	C342.702423,356.564331 331.088196,359.147888 320.455750,363.926056 
	C289.755646,377.722504 262.552399,397.079163 236.665009,419.073120 
	C227.182648,419.517792 218.092407,419.795044 209.002151,420.072327 
	C208.831711,420.010437 208.661285,419.948547 207.817627,419.827362 
	C200.782135,418.949585 194.416519,418.156494 188.058746,417.304779 
	C182.720932,416.589722 177.392242,415.806427 172.059525,415.053345 
	C172.059525,415.053345 171.674133,414.846313 171.455902,414.831604 
z"/>
<path fill="#010101" opacity="1.000000" stroke="none" 
	d="
M237.057114,418.905701 
	C262.552399,397.079163 289.755646,377.722504 320.455750,363.926056 
	C331.088196,359.147888 342.702423,356.564331 353.829224,352.861115 
	C354.956268,352.486023 355.813141,351.299133 357.313904,350.174622 
	C361.505554,350.304413 365.178741,350.748566 368.851929,351.192719 
	C367.878113,352.643402 366.904266,354.094116 365.998535,355.774597 
	C363.480804,359.361450 361.258728,363.092865 358.250732,366.015320 
	C337.505096,386.170380 313.700348,401.587646 286.373596,411.298523 
	C280.291656,413.459778 274.031036,415.211212 267.736786,416.641083 
	C264.816956,417.304413 261.619141,416.726166 258.547577,416.748199 
	C257.395874,416.756470 256.034515,416.494385 255.129028,417.000336 
	C250.567535,419.549072 245.557480,418.276276 240.033203,418.950165 
	C238.536728,418.936035 237.796921,418.920868 237.057114,418.905701 
z"/>
<path fill="#0F0E0F" opacity="1.000000" stroke="none" 
	d="
M172.318817,415.257233 
	C177.392242,415.806427 182.720932,416.589722 188.058746,417.304779 
	C194.416519,418.156494 200.782135,418.949585 207.551819,419.885010 
	C207.054565,420.602692 206.104584,421.781006 205.252213,421.714203 
	C197.278809,421.089142 189.322159,420.250671 180.709167,419.410400 
	C180.400970,419.905334 179.675583,421.070221 178.548218,422.880646 
	C176.331329,420.125549 174.454727,417.793335 172.318817,415.257233 
z"/>
<path fill="#151515" opacity="1.000000" stroke="none" 
	d="
M236.665009,419.073120 
	C237.796921,418.920868 238.536728,418.936035 239.646698,418.962128 
	C235.974609,419.975983 231.932358,420.978912 227.090790,421.796021 
	C220.895035,421.437103 215.498581,421.263947 210.102127,421.090790 
	C209.841293,420.882751 209.591064,420.662689 209.176788,420.251465 
	C218.092407,419.795044 227.182648,419.517792 236.665009,419.073120 
z"/>
<path fill="#0F0E0F" opacity="1.000000" stroke="none" 
	d="
M210.457291,421.268005 
	C215.498581,421.263947 220.895035,421.437103 226.660889,421.797363 
	C221.624359,421.804779 216.218399,421.625000 210.457291,421.268005 
z"/>
<path fill="#F7470A" opacity="1.000000" stroke="none" 
	d="
M369.197632,351.095703 
	C365.178741,350.748566 361.505554,350.304413 357.389893,349.890869 
	C356.947449,349.921448 357.022095,349.984070 356.850220,349.627625 
	C349.260681,348.810242 341.840912,347.931122 334.425873,347.969330 
	C314.689301,348.070953 294.925140,348.021454 275.229370,349.090363 
	C260.979645,349.863647 246.703979,351.673035 232.650208,354.193298 
	C210.865860,358.099884 189.389160,363.637604 168.889511,372.091370 
	C153.669189,378.367950 138.914978,385.774841 123.953171,392.678284 
	C121.816429,392.019867 119.286934,391.883881 117.605423,390.619873 
	C104.785774,380.982849 92.045815,371.233398 79.503387,361.239868 
	C77.184822,359.392456 75.872345,356.282349 74.180801,353.410492 
	C90.981125,347.828094 107.500732,341.802185 124.470985,337.593384 
	C138.922241,334.009308 153.871902,332.383514 168.637238,330.128204 
	C195.743958,325.987823 223.076981,325.526276 250.389069,326.314545 
	C265.867157,326.761261 281.321869,328.560913 296.746582,330.145844 
	C309.877472,331.495087 323.010986,333.039856 336.031647,335.178101 
	C348.781525,337.271851 361.390320,340.224670 374.406708,342.915161 
	C373.016022,345.686188 371.279663,348.342468 369.197632,351.095703 
z"/>
<path fill="#000000" opacity="1.000000" stroke="none" 
	d="
M124.137451,392.980896 
	C138.914978,385.774841 153.669189,378.367950 168.889511,372.091370 
	C189.389160,363.637604 210.865860,358.099884 232.650208,354.193298 
	C246.703979,351.673035 260.979645,349.863647 275.229370,349.090363 
	C294.925140,348.021454 314.689301,348.070953 334.425873,347.969330 
	C341.840912,347.931122 349.260681,348.810242 356.887451,349.659058 
	C348.352386,349.730774 339.607635,349.152679 330.864258,349.173004 
	C322.330170,349.192841 313.752197,349.395935 305.275452,350.293030 
	C294.193176,351.465790 283.176239,353.302399 272.158447,355.027527 
	C252.647400,358.082642 234.024887,364.387329 215.696762,371.424988 
	C192.819290,380.209442 171.069305,391.371338 150.081421,404.716248 
	C139.126770,405.799988 131.344910,400.373322 124.137451,392.980896 
z"/>
<path fill="#121112" opacity="1.000000" stroke="none" 
	d="
M374.998840,350.998230 
	C374.997711,350.996460 375.067932,350.961578 375.035675,350.981873 
	C375.003418,351.002167 375.000000,351.000000 374.998840,350.998230 
z"/>
<path fill="#0F0E0F" opacity="1.000000" stroke="none" 
	d="
M62.714977,346.130066 
	C65.257072,348.126984 67.483398,350.268951 69.854965,352.705933 
	C66.391663,355.229156 63.564766,352.904694 60.944786,351.035614 
	C60.515873,350.729584 61.869465,347.924957 62.714977,346.130066 
z"/>
<path fill="#0F0E0F" opacity="1.000000" stroke="none" 
	d="
M49.981316,351.018555 
	C49.837025,348.777130 49.710751,346.521423 49.531452,343.318573 
	C52.271309,346.171997 52.706871,348.286316 50.270561,350.858765 
	C49.969372,351.046539 49.999329,351.004272 49.981316,351.018555 
z"/>
<path fill="#0B0C0E" opacity="1.000000" stroke="none" 
	d="
M57.877903,338.254578 
	C58.945316,339.123047 59.889843,340.246124 60.921062,341.679657 
	C57.869038,342.749542 57.641541,340.788635 57.877903,338.254578 
z"/>
<path fill="#0F0E0F" opacity="1.000000" stroke="none" 
	d="
M55.160149,334.165894 
	C55.252106,334.185364 55.482750,334.402649 55.850304,334.819397 
	C55.761505,334.796295 55.532043,334.577911 55.160149,334.165894 
z"/>
<path fill="#0B0C0E" opacity="1.000000" stroke="none" 
	d="
M150.017319,255.987488 
	C161.025513,256.045776 161.025513,256.045776 166.231781,244.310776 
	C171.353012,244.180862 171.601685,247.343964 172.203201,250.866821 
	C172.599091,253.185379 174.050552,255.994431 175.919083,257.171967 
	C177.334137,258.063690 180.154617,256.725281 182.349655,256.379303 
	C182.496445,255.909149 182.643250,255.438995 182.790039,254.968842 
	C177.004944,253.880661 175.537491,251.061310 178.332779,246.280746 
	C178.742477,245.580063 178.266800,244.344910 178.159256,243.361588 
	C177.781952,239.911911 177.386490,236.464203 176.997925,233.015747 
	C177.660782,232.967911 178.441208,233.129852 178.966049,232.835739 
	C181.176666,231.596954 183.311005,230.222061 185.473251,228.896973 
	C183.810272,227.321991 182.320343,225.493729 180.453018,224.217819 
	C173.903366,219.742599 166.899185,215.868195 160.698654,210.967285 
	C155.948288,207.212540 155.118469,198.962921 158.833008,194.191864 
	C164.598083,186.787033 170.666351,179.527969 177.354996,172.971069 
	C180.629547,169.761002 185.593704,168.276917 189.787186,166.000687 
	C191.678696,164.973984 193.834351,164.229416 195.390625,162.825317 
	C201.906876,156.946243 209.630127,153.903976 218.166306,152.779037 
	C219.774704,152.567078 221.515503,153.355637 223.194580,153.685577 
	C224.251114,153.893173 225.859680,154.620285 226.243622,154.206924 
	C226.972229,153.422470 227.119217,152.003387 227.288834,150.816605 
	C227.536041,149.086838 227.589844,147.329437 228.219177,145.378250 
	C238.122818,148.718018 238.286316,149.619812 233.561615,158.271774 
	C232.573425,160.081329 233.132828,163.223541 233.925629,165.408142 
	C235.237671,169.023590 235.308701,169.741013 231.719803,171.327652 
	C231.823776,170.073425 232.140656,168.947693 231.914337,167.944473 
	C231.783722,167.365494 230.788132,166.636826 230.159653,166.615005 
	C229.568909,166.594513 228.608765,167.295197 228.402222,167.885391 
	C227.608643,170.153152 226.645813,172.476456 226.486588,174.829163 
	C226.066986,181.029236 224.004074,185.986023 218.595490,189.657867 
	C217.020401,190.727173 216.825256,193.829147 215.940979,196.321503 
	C215.068649,197.286621 214.276947,197.963364 213.431656,198.564835 
	C212.105438,199.508575 210.743103,200.401535 209.396057,201.316010 
	C210.577133,202.901535 211.534286,204.758621 213.015549,205.980118 
	C214.057632,206.839432 215.809189,206.847641 217.249847,207.212677 
	C222.727325,208.600647 227.913635,210.253265 229.784851,216.594482 
	C230.916138,220.428177 232.461411,224.139709 233.773392,227.775146 
	C241.906769,222.044006 250.362915,216.085419 258.534058,210.327667 
	C253.725952,209.968079 248.447342,209.573318 243.168716,209.178543 
	C243.199326,208.948196 243.229935,208.717865 243.260559,208.487518 
	C248.819839,207.998428 254.379135,207.509338 260.299713,207.051605 
	C266.680725,207.580597 263.573822,211.479019 262.953674,214.985397 
	C266.492676,215.394409 269.820190,215.414154 272.937256,216.234055 
	C276.615417,217.201523 279.911133,218.185394 282.631165,214.331741 
	C282.829926,214.050140 286.337952,215.218536 286.400116,215.889511 
	C286.600159,218.048187 285.651733,220.288010 285.636810,222.499832 
	C285.624725,224.291183 286.308685,226.090012 286.706482,227.880508 
	C287.043671,229.398331 288.046722,231.106827 287.647552,232.385117 
	C286.526825,235.974304 284.440918,238.637009 280.189911,239.493683 
	C278.083466,239.918198 274.612396,242.415985 274.782776,243.500641 
	C275.168579,245.956070 277.309235,248.212524 278.991302,250.349121 
	C279.646912,251.181961 280.988251,251.474960 282.017242,252.013870 
	C279.061249,255.540176 276.008453,258.991058 273.183350,262.619293 
	C271.300201,265.037781 269.741699,267.709015 268.018982,270.633575 
	C268.000000,271.000000 268.001617,270.997528 268.001617,270.997528 
	C267.670349,277.262085 267.474396,283.537964 266.950256,289.786346 
	C266.691101,292.875305 266.406097,296.185913 265.120026,298.919861 
	C262.117615,305.302582 255.889725,307.417297 249.085144,305.056793 
	C247.847229,304.627380 246.364777,303.845337 245.285980,304.175690 
	C232.205780,308.181000 219.920013,302.066498 207.230042,301.390900 
	C198.535858,300.928070 189.797546,301.160309 181.123886,300.495575 
	C175.767700,300.085114 170.522964,298.377869 165.174866,297.638824 
	C162.450760,297.262329 159.608932,297.737640 155.990326,297.915405 
	C150.107681,298.001923 145.055069,298.000977 139.855408,297.678925 
	C139.094818,296.388397 138.665070,294.792969 137.838150,294.550201 
	C132.098389,292.864990 126.894196,288.343353 120.128754,292.504395 
	C114.279999,296.101654 106.065285,293.049927 103.522682,287.209290 
	C101.443985,282.434296 104.757301,274.306244 109.498322,272.427155 
	C116.243866,269.753540 123.034340,267.174683 129.652557,264.213257 
	C131.084045,263.572754 131.865509,261.479523 133.387451,260.046143 
	C139.224792,258.687042 144.621063,257.337250 150.017319,255.987488 
M183.752930,250.928619 
	C184.267181,250.874283 184.781418,250.819962 185.295670,250.765610 
	C185.220047,250.471176 185.144409,250.176727 185.068787,249.882294 
	C184.593536,250.086243 184.118286,250.290192 183.752930,250.928619 
M218.362869,154.309723 
	C218.134186,154.454712 217.905487,154.599716 217.676788,154.744690 
	C217.936401,154.676620 218.196030,154.608551 218.362869,154.309723 
z"/>
<path fill="#0E0E10" opacity="1.000000" stroke="none" 
	d="
M282.290039,251.825165 
	C280.988251,251.474960 279.646912,251.181961 278.991302,250.349121 
	C277.309235,248.212524 275.168579,245.956070 274.782776,243.500641 
	C274.612396,242.415985 278.083466,239.918198 280.189911,239.493683 
	C284.440918,238.637009 286.526825,235.974304 287.647552,232.385117 
	C288.046722,231.106827 287.043671,229.398331 286.706482,227.880508 
	C286.308685,226.090012 285.624725,224.291183 285.636810,222.499832 
	C285.651733,220.288010 286.600159,218.048187 286.400116,215.889511 
	C286.337952,215.218536 282.829926,214.050140 282.631165,214.331741 
	C279.911133,218.185394 276.615417,217.201523 272.937256,216.234055 
	C269.820190,215.414154 266.492676,215.394409 262.953674,214.985397 
	C263.573822,211.479019 266.680725,207.580597 259.838470,207.049896 
	C256.519409,207.012711 253.998138,207.230713 251.531693,206.956192 
	C247.005310,206.452408 242.511261,205.658310 238.069153,204.643005 
	C239.197174,203.376770 240.359528,202.542923 241.296829,201.505692 
	C242.440720,200.239838 243.999649,198.881958 244.191757,197.409042 
	C244.296631,196.604706 242.045715,195.310333 240.686844,194.535934 
	C237.842072,192.914749 234.884491,191.491547 231.977142,189.746780 
	C231.981049,189.506516 231.990036,189.026016 231.874329,188.770538 
	C230.839005,188.671570 229.919388,188.828064 228.666565,188.988083 
	C227.889130,188.993378 227.444870,188.995163 226.935577,188.668304 
	C227.202560,187.017868 227.105194,184.985565 227.933487,184.484985 
	C235.645111,179.824570 238.139175,172.481277 239.135025,164.164307 
	C239.288132,162.885635 240.282211,160.863083 241.153030,160.711578 
	C242.481125,160.480515 244.279526,161.282562 245.433136,162.203476 
	C246.515869,163.067810 246.885941,164.765961 247.811630,165.899567 
	C249.233780,167.641174 250.863098,169.213608 252.404510,170.857819 
	C253.922165,168.970169 255.373886,167.024246 256.976105,165.211334 
	C258.573090,163.404343 260.320984,161.730774 262.002716,159.998718 
	C262.951538,164.286163 264.362762,168.539200 264.685425,172.873260 
	C264.898010,175.728790 262.759888,177.599655 259.379333,177.346756 
	C255.911346,177.087311 252.422119,177.111801 248.156281,177.064774 
	C246.922073,178.416779 246.473755,179.716064 246.025421,181.015335 
	C246.027740,182.068359 246.030060,183.121399 245.925308,184.913940 
	C245.514893,187.474655 245.211548,189.295837 244.908188,191.117035 
	C245.957535,191.055267 247.006866,190.993484 248.056213,190.931717 
	C249.536346,191.466339 251.016464,192.000946 252.789185,193.049561 
	C254.395737,193.700638 255.709671,193.837738 257.023621,193.974823 
	C260.453094,193.756470 263.882568,193.538116 266.061249,193.399399 
	C270.990967,195.466904 275.121399,197.199203 279.623169,198.964493 
	C279.994446,198.997467 279.982208,198.991501 280.103271,199.057510 
	C280.224365,199.123520 280.626312,199.154236 280.626312,199.154236 
	C280.626312,199.154236 281.003418,198.998260 281.001709,198.999130 
	C281.000000,199.000000 280.999084,199.001816 280.999084,199.001816 
	C282.614014,199.460678 284.228912,199.919540 285.843842,200.378403 
	C286.064789,199.921371 286.285736,199.464340 286.506683,199.007294 
	C284.867950,197.946411 283.229218,196.885529 280.388428,195.046432 
	C281.596069,191.863083 283.122040,188.397873 284.180939,184.795380 
	C284.653320,183.188202 284.449188,181.246307 284.073669,179.563080 
	C283.678619,177.792267 282.711792,176.149017 281.994843,174.450027 
	C282.411743,174.084763 282.828644,173.719513 283.245544,173.354263 
	C287.020721,175.955872 290.858307,178.472641 294.550171,181.187546 
	C297.219574,183.150574 299.889832,185.183441 302.218170,187.524841 
	C307.466797,192.802933 313.309387,197.758209 317.357635,203.872803 
	C320.309235,208.330948 321.087402,214.371155 322.151367,219.838989 
	C322.429657,221.269150 320.534332,223.728470 318.999023,224.804016 
	C310.852905,230.510788 310.420380,232.568115 316.749390,241.128922 
	C319.096680,248.348633 320.347717,255.772629 330.115387,254.574829 
	C330.388885,254.541290 330.703796,254.845840 330.809143,255.301819 
	C327.725006,256.399109 324.831085,257.187347 321.650146,257.878296 
	C320.719116,257.796783 320.075165,257.812561 319.431213,257.828369 
	C319.723816,263.404236 315.370056,264.535034 311.505157,266.159515 
	C311.261963,266.261719 311.165009,266.711761 310.815430,266.715546 
	C309.423248,264.961609 308.215668,263.492126 306.919434,261.670471 
	C305.761810,257.587067 304.818146,253.812500 303.552185,250.149323 
	C303.138824,248.953201 301.885895,248.047211 301.016968,247.008545 
	C300.762024,244.548508 300.507111,242.088455 300.069275,238.979111 
	C298.924713,237.552475 297.963013,236.775162 296.981689,235.965775 
	C296.962006,235.933716 296.997650,236.001404 296.755951,236.228851 
	C294.010010,239.296844 291.505737,242.137405 289.001495,244.977966 
	C286.855286,247.197464 284.709045,249.416962 282.290039,251.825165 
z"/>
<path fill="#131314" opacity="1.000000" stroke="none" 
	d="
M300.753174,247.234589 
	C301.885895,248.047211 303.138824,248.953201 303.552185,250.149323 
	C304.818146,253.812500 305.761810,257.587067 306.651764,261.868500 
	C297.491302,272.868408 295.760132,286.660706 301.970673,298.911041 
	C302.552063,300.057922 303.387085,301.288452 304.438232,301.948059 
	C308.894012,304.744141 313.475891,307.339264 317.975769,310.025543 
	C317.939850,310.043243 317.991699,309.987854 318.359741,310.004211 
	C321.694672,310.369659 324.661560,310.718781 327.628418,311.067871 
	C327.480377,311.644318 327.332367,312.220795 327.260925,312.499054 
	C331.531281,311.679474 336.192780,311.535339 340.222809,309.866364 
	C351.007263,305.400177 354.149811,295.334991 356.852570,285.191284 
	C356.975403,284.730377 356.406189,284.114746 356.255890,283.545685 
	C355.818115,281.888306 355.293518,280.236389 355.063629,278.546844 
	C354.872009,277.138733 355.503418,275.488525 354.990967,274.274506 
	C350.475586,263.577393 342.763306,256.731628 330.999420,254.992737 
	C330.703796,254.845840 330.388885,254.541290 330.115387,254.574829 
	C320.347717,255.772629 319.096680,248.348633 317.019653,241.333817 
	C323.991119,240.320923 331.006348,239.689117 338.021545,239.057312 
	C350.431671,247.037140 364.034149,253.263000 369.503815,269.130676 
	C373.032501,279.367523 372.741943,288.601135 369.112762,298.376160 
	C365.498932,308.109802 359.062225,315.087280 350.705841,321.179138 
	C344.291901,325.854919 336.809998,327.548798 329.888611,329.269043 
	C322.044220,331.218689 313.700195,329.048126 306.114502,323.645966 
	C297.372528,317.420258 291.369446,309.117493 285.086517,300.987610 
	C283.185028,298.527161 283.850830,294.082672 283.169617,290.272766 
	C282.998535,289.998505 283.010223,290.004974 283.010223,290.004974 
	C282.736633,285.381317 282.165588,280.748688 282.305115,276.137543 
	C282.384064,273.527466 283.180786,270.708954 284.431366,268.406433 
	C288.668152,260.605682 291.380859,251.548569 300.753174,247.234589 
z"/>
<path fill="#0F0F11" opacity="1.000000" stroke="none" 
	d="
M329.595337,158.006744 
	C330.304047,159.225906 330.891541,160.483536 330.902130,161.746017 
	C330.933105,165.434937 332.617157,166.975098 336.315826,167.087646 
	C338.338623,167.149216 340.332733,168.154175 342.690521,168.878082 
	C338.983795,172.375595 339.407806,175.617218 342.583282,179.567123 
	C345.262726,182.900009 346.764038,187.168289 349.376617,190.569473 
	C353.254730,195.618088 357.617981,200.298309 361.848999,205.069443 
	C363.452576,206.877701 365.373810,208.406464 366.955444,210.231430 
	C370.492920,214.313202 375.021088,215.816254 380.217255,215.415207 
	C382.840546,215.212738 384.571381,216.066437 383.399506,218.654755 
	C379.742767,226.731552 375.719696,234.642502 371.442535,243.431732 
	C361.492798,234.213562 350.486694,229.618347 338.558502,227.405045 
	C342.562317,213.883255 338.655060,201.996140 329.773468,192.746704 
	C320.188568,182.764801 308.754669,174.557709 298.118164,165.587280 
	C296.942413,164.595688 295.706512,163.675430 294.498535,162.722092 
	C294.772125,162.177917 295.045715,161.633728 295.319305,161.089554 
	C297.719360,162.061630 300.515594,162.545761 302.437775,164.106415 
	C306.559052,167.452560 310.292267,166.107330 314.336121,164.297379 
	C319.243622,162.100891 324.248047,160.121033 329.595337,158.006744 
z"/>
<path fill="#0C0D0F" opacity="1.000000" stroke="none" 
	d="
M176.679382,232.863647 
	C177.386490,236.464203 177.781952,239.911911 178.159256,243.361588 
	C178.266800,244.344910 178.742477,245.580063 178.332779,246.280746 
	C175.537491,251.061310 177.004944,253.880661 182.790039,254.968842 
	C182.643250,255.438995 182.496445,255.909149 182.349655,256.379303 
	C180.154617,256.725281 177.334137,258.063690 175.919083,257.171967 
	C174.050552,255.994431 172.599091,253.185379 172.203201,250.866821 
	C171.601685,247.343964 171.353012,244.180862 166.419998,244.019958 
	C161.007721,242.388855 156.059921,239.732086 150.937943,239.337738 
	C129.625900,237.696869 114.802055,225.371887 101.633392,210.323471 
	C95.292709,203.077667 95.631950,202.777695 105.157272,200.815521 
	C107.596413,200.313065 110.388878,197.639069 112.035034,202.132858 
	C112.246078,202.708984 114.198654,202.902390 115.323921,202.848038 
	C124.440483,202.407684 132.903519,205.384003 141.060852,208.650299 
	C144.961075,210.212021 147.815994,214.356339 151.183136,217.286392 
	C153.770248,219.537674 156.170212,222.146713 159.091827,223.840363 
	C164.683319,227.081757 170.586823,229.785004 176.679382,232.863647 
z"/>
<path fill="#121112" opacity="1.000000" stroke="none" 
	d="
M140.002441,298.000000 
	C145.055069,298.000977 150.107681,298.001923 155.597382,298.003967 
	C154.225845,308.773285 147.299454,315.526520 138.318649,320.724792 
	C127.437225,327.023163 115.454308,328.793060 103.602135,326.214325 
	C93.930161,324.109894 85.202972,318.691650 78.779358,310.601440 
	C71.144814,300.986115 67.478500,290.122925 69.325714,277.312073 
	C74.689224,276.744202 79.702972,276.723969 84.124802,280.314453 
	C83.860260,295.232880 91.913055,306.788727 105.277168,310.802002 
	C118.665344,314.822510 132.405746,309.756897 140.002441,298.000000 
z"/>
<path fill="#0C0D0F" opacity="1.000000" stroke="none" 
	d="
M261.824768,159.708969 
	C260.320984,161.730774 258.573090,163.404343 256.976105,165.211334 
	C255.373886,167.024246 253.922165,168.970169 252.404510,170.857819 
	C250.863098,169.213608 249.233780,167.641174 247.811630,165.899567 
	C246.885941,164.765961 246.515869,163.067810 245.433136,162.203476 
	C244.279526,161.282562 242.481125,160.480515 241.153030,160.711578 
	C240.282211,160.863083 239.288132,162.885635 239.135025,164.164307 
	C238.139175,172.481277 235.645111,179.824570 227.933487,184.484985 
	C227.105194,184.985565 227.202560,187.017868 226.635681,188.781281 
	C225.269287,189.818649 224.137741,190.414337 222.800171,190.916138 
	C222.068939,191.227966 221.543732,191.633698 221.013245,192.280670 
	C221.007935,192.521942 220.989258,193.004227 220.817230,193.154739 
	C220.422195,193.513046 220.212906,193.733856 219.699310,194.046448 
	C218.253387,194.749939 217.125473,195.374680 215.997559,195.999390 
	C216.825256,193.829147 217.020401,190.727173 218.595490,189.657867 
	C224.004074,185.986023 226.066986,181.029236 226.486588,174.829163 
	C226.645813,172.476456 227.608643,170.153152 228.402222,167.885391 
	C228.608765,167.295197 229.568909,166.594513 230.159653,166.615005 
	C230.788132,166.636826 231.783722,167.365494 231.914337,167.944473 
	C232.140656,168.947693 231.823776,170.073425 231.719803,171.327652 
	C235.308701,169.741013 235.237671,169.023590 233.925629,165.408142 
	C233.132828,163.223541 232.573425,160.081329 233.561615,158.271774 
	C238.286316,149.619812 238.122818,148.718018 228.359009,145.086365 
	C228.735733,131.690765 235.433304,127.030991 246.964584,124.483658 
	C250.524475,123.697250 255.497314,125.906158 258.831024,128.191162 
	C266.201599,133.243134 272.276123,139.751724 275.302673,148.509109 
	C275.566986,149.273911 275.607666,150.129486 275.654633,150.948502 
	C275.670715,151.229309 275.388092,151.527252 274.904785,152.486725 
	C273.225281,151.836014 271.516602,150.759186 269.715942,150.573303 
	C266.997253,150.292664 263.484100,149.615234 261.627960,150.946274 
	C258.758392,153.004059 259.557068,156.560059 261.824768,159.708969 
z"/>
<path fill="#151515" opacity="1.000000" stroke="none" 
	d="
M83.998756,280.000000 
	C79.702972,276.723969 74.689224,276.744202 69.341446,276.932190 
	C70.891220,255.643707 89.721222,238.003510 111.018250,238.072449 
	C116.753441,238.091003 122.484840,239.278717 128.608765,239.965302 
	C128.999557,240.000839 128.984039,239.989410 128.984039,239.989410 
	C135.868927,245.139618 142.753815,250.289825 149.828003,255.713760 
	C144.621063,257.337250 139.224792,258.687042 133.077591,259.908936 
	C123.442772,252.952988 113.455688,252.375885 103.184677,255.240570 
	C92.684814,258.169098 84.579483,269.019318 83.998756,280.000000 
z"/>
<path fill="#0A0B0D" opacity="1.000000" stroke="none" 
	d="
M199.575607,63.587681 
	C194.975784,66.868118 190.642303,69.896576 186.416733,73.068764 
	C184.042145,74.851395 182.040649,75.874825 180.858902,71.991661 
	C180.714645,71.517616 180.596466,70.958824 180.273254,70.627563 
	C175.376221,65.608559 176.019241,61.810673 181.571014,57.213531 
	C184.657944,54.657413 181.775879,50.796589 179.458801,47.727711 
	C177.909286,45.675423 176.556076,42.578869 176.945328,40.256371 
	C177.231262,38.550308 180.299530,36.637482 182.456787,36.072304 
	C185.887360,35.173531 189.587723,35.163918 193.181976,35.062881 
	C198.798279,34.904999 204.421356,34.957191 210.041412,34.973171 
	C214.380264,34.985504 218.745514,34.817352 223.045364,35.255798 
	C224.952164,35.450226 226.726517,36.943508 228.560989,37.847198 
	C227.612595,39.711174 227.138077,42.207954 225.636108,43.332691 
	C217.979675,49.066208 212.761261,57.847027 203.245605,61.256065 
	C202.026978,61.692642 201.001846,62.669338 199.575607,63.587681 
z"/>
<path fill="#0B0C0E" opacity="1.000000" stroke="none" 
	d="
M363.435059,155.028061 
	C362.371979,153.729660 361.715668,152.419098 360.913116,150.816589 
	C361.677734,150.289047 362.500122,149.805847 363.226959,149.206757 
	C368.714539,144.683685 371.125580,144.887039 375.915771,150.191742 
	C377.102081,151.505447 378.480560,152.645599 379.974152,154.057922 
	C378.777191,154.920456 377.618835,155.755188 376.215546,156.801651 
	C372.245209,154.419449 368.163544,153.988617 363.435059,155.028061 
z"/>
<path fill="#0A0B0D" opacity="1.000000" stroke="none" 
	d="
M263.768738,91.057602 
	C264.472351,92.547226 264.915771,93.807632 265.359192,95.068039 
	C264.034790,94.847389 262.224548,95.096016 261.475067,94.320053 
	C259.005554,91.763351 256.793610,88.863968 259.209259,84.168411 
	C260.915894,86.812126 262.212219,88.820251 263.768738,91.057602 
z"/>
<path fill="#0A0B0D" opacity="1.000000" stroke="none" 
	d="
M227.812927,63.397762 
	C230.274139,63.578087 232.390976,63.901997 234.507812,64.225906 
	C234.433655,64.956589 234.359482,65.687263 234.285309,66.417946 
	C231.996979,66.417946 229.708633,66.417946 227.420303,66.417946 
	C227.436386,65.459084 227.452484,64.500214 227.812927,63.397762 
z"/>
<path fill="#0B0C0E" opacity="1.000000" stroke="none" 
	d="
M328.755249,131.932129 
	C328.286407,134.479584 327.575958,136.942612 326.931274,139.693909 
	C325.675049,139.942841 324.352997,139.903503 323.030945,139.864166 
	C323.307495,138.532974 323.199524,136.904144 323.947510,135.937943 
	C325.177795,134.348679 326.962585,133.188660 328.755249,131.932129 
z"/>
<path fill="#0A0B0D" opacity="1.000000" stroke="none" 
	d="
M289.356934,244.940674 
	C291.505737,242.137405 294.010010,239.296844 296.757141,236.228149 
	C297.000000,236.000000 297.001343,235.997833 297.001343,235.997833 
	C297.963013,236.775162 298.924713,237.552475 299.943176,238.664307 
	C297.870026,240.040771 295.693695,240.999695 293.626343,242.153870 
	C292.241608,242.926941 291.011627,243.977173 289.356934,244.940674 
z"/>
<path fill="#0B0C0E" opacity="1.000000" stroke="none" 
	d="
M338.122955,139.350220 
	C341.409027,137.588501 342.428375,140.286743 343.047058,142.482864 
	C343.293182,143.356628 341.564209,144.786789 340.381104,145.985703 
	C339.437531,143.899338 338.847290,141.790924 338.122955,139.350220 
z"/>
<path fill="#0C0D0F" opacity="1.000000" stroke="none" 
	d="
M248.045700,190.544708 
	C247.006866,190.993484 245.957535,191.055267 244.908188,191.117035 
	C245.211548,189.295837 245.514893,187.474655 245.921631,185.308807 
	C246.695068,186.695343 247.365128,188.426514 248.045700,190.544708 
z"/>
<path fill="#0B0C0E" opacity="1.000000" stroke="none" 
	d="
M340.639191,151.103516 
	C341.790680,152.041946 342.667053,153.130554 343.543396,154.219177 
	C343.309998,154.627548 343.076599,155.035919 342.843201,155.444290 
	C341.684052,155.111557 340.524933,154.778824 339.168823,154.197815 
	C339.435913,153.050949 339.899963,152.152328 340.639191,151.103516 
z"/>
<path fill="#0B0C0E" opacity="1.000000" stroke="none" 
	d="
M396.719910,168.176697 
	C397.501404,168.226593 398.025238,168.447922 398.777832,168.840729 
	C397.346954,169.786316 395.687317,170.560394 394.027710,171.334488 
	C393.807343,170.892548 393.587006,170.450607 393.366669,170.008667 
	C394.398529,169.455154 395.430420,168.901642 396.719910,168.176697 
z"/>
<path fill="#0C0D0F" opacity="1.000000" stroke="none" 
	d="
M246.277924,180.801758 
	C246.473755,179.716064 246.922073,178.416779 247.699112,177.065277 
	C247.528687,178.204742 247.029556,179.396469 246.277924,180.801758 
z"/>
<path fill="#0C0D0F" opacity="1.000000" stroke="none" 
	d="
M256.723022,193.797791 
	C255.709671,193.837738 254.395737,193.700638 253.045944,193.270950 
	C254.147552,193.192490 255.285004,193.406616 256.723022,193.797791 
z"/>
<path fill="#0B0C0E" opacity="1.000000" stroke="none" 
	d="
M381.053436,163.337769 
	C381.918152,163.823410 382.842133,164.642548 383.884186,165.718842 
	C383.039062,165.207733 382.075867,164.439499 381.053436,163.337769 
z"/>
<path fill="#0B0C0E" opacity="1.000000" stroke="none" 
	d="
M347.662170,132.003418 
	C347.099243,132.449890 346.217743,132.933182 345.164093,133.194016 
	C345.775818,132.661133 346.559723,132.350693 347.662170,132.003418 
z"/>
<path fill="#131314" opacity="1.000000" stroke="none" 
	d="
M282.992920,289.992676 
	C282.915710,290.428589 282.844116,290.870331 282.772552,291.312042 
	C282.674164,291.287689 282.575775,291.263306 282.477386,291.238922 
	C282.569000,290.923828 282.660645,290.608765 282.881256,290.149323 
	C283.010223,290.004974 282.998535,289.998505 282.992920,289.992676 
z"/>
<path fill="#0B0C0E" opacity="1.000000" stroke="none" 
	d="
M335.072815,139.137207 
	C335.033020,138.990677 335.511414,138.993332 335.750488,138.994232 
	C335.697235,139.091339 335.404938,139.187546 335.072815,139.137207 
z"/>
<path fill="#0C0D0F" opacity="1.000000" stroke="none" 
	d="
M276.501953,154.492615 
	C276.507629,154.510773 276.496246,154.474457 276.501953,154.492615 
z"/>
<path fill="#0E0E10" opacity="1.000000" stroke="none" 
	d="
M280.497131,174.503922 
	C280.490692,174.483887 280.503601,174.523956 280.497131,174.503922 
z"/>
<path fill="#0B0C0E" opacity="1.000000" stroke="none" 
	d="
M160.497482,298.505737 
	C160.490555,298.486023 160.504410,298.525452 160.497482,298.505737 
z"/>
<path fill="#0B0C0E" opacity="1.000000" stroke="none" 
	d="
M414.001648,183.998917 
	C414.003265,183.997833 413.961060,183.936493 413.979370,183.969849 
	C413.997681,184.003220 414.000000,184.000000 414.001648,183.998917 
z"/>
<path fill="#0B0C0E" opacity="1.000000" stroke="none" 
	d="
M267.998718,271.000854 
	C267.997437,271.001709 268.039490,271.063141 268.020569,271.030334 
	C268.001617,270.997528 268.000000,271.000000 267.998718,271.000854 
z"/>
<path fill="#0B0C0E" opacity="1.000000" stroke="none" 
	d="
M26.001629,260.002441 
	C26.003267,260.004883 26.061020,259.960938 26.028080,259.978821 
	C25.995142,259.996735 25.999992,260.000000 26.001629,260.002441 
z"/>
<path fill="#0E0E10" opacity="1.000000" stroke="none" 
	d="
M263.496277,192.498581 
	C263.514557,192.492996 263.477997,192.504166 263.496277,192.498581 
z"/>
<path fill="#151515" opacity="1.000000" stroke="none" 
	d="
M129.005341,240.008621 
	C129.011108,240.016403 129.047043,239.955627 129.015533,239.972519 
	C128.984039,239.989410 128.999557,240.000839 129.005341,240.008621 
z"/>
<path fill="#0E0E10" opacity="1.000000" stroke="none" 
	d="
M275.496338,195.509903 
	C275.489990,195.490280 275.502655,195.529526 275.496338,195.509903 
z"/>
<path fill="#0E0E10" opacity="1.000000" stroke="none" 
	d="
M279.998596,199.002579 
	C280.237823,198.840866 280.491089,198.796005 280.880859,198.937454 
	C280.999084,199.001816 281.000000,199.000000 280.746399,198.997375 
	C280.322571,198.993683 280.152405,198.992599 279.982208,198.991501 
	C279.982208,198.991501 279.994446,198.997467 279.998596,199.002579 
z"/>
<path fill="#0B0C0E" opacity="1.000000" stroke="none" 
	d="
M352.899475,149.143524 
	C352.788971,151.098160 352.835297,153.113297 351.873535,154.334457 
	C351.423828,154.905487 348.816559,154.282013 347.597748,153.532349 
	C346.975983,153.149902 346.873383,150.394699 347.201813,150.252792 
	C348.897095,149.520340 350.807800,149.286545 352.899475,149.143524 
z"/>
<path fill="#0B0C0E" opacity="1.000000" stroke="none" 
	d="
M350.678650,132.457001 
	C350.604797,132.580521 350.503632,132.628098 350.402466,132.675674 
	C350.485413,132.577469 350.568359,132.479279 350.678650,132.457001 
z"/>
<path fill="#010101" opacity="1.000000" stroke="none" 
	d="
M84.124802,280.314453 
	C84.579483,269.019318 92.684814,258.169098 103.184677,255.240570 
	C113.455688,252.375885 123.442772,252.952988 132.636505,259.918243 
	C131.865509,261.479523 131.084045,263.572754 129.652557,264.213257 
	C123.034340,267.174683 116.243866,269.753540 109.498322,272.427155 
	C104.757301,274.306244 101.443985,282.434296 103.522682,287.209290 
	C106.065285,293.049927 114.279999,296.101654 120.128754,292.504395 
	C126.894196,288.343353 132.098389,292.864990 137.838150,294.550201 
	C138.665070,294.792969 139.094818,296.388397 139.855408,297.678925 
	C132.405746,309.756897 118.665344,314.822510 105.277168,310.802002 
	C91.913055,306.788727 83.860260,295.232880 84.124802,280.314453 
z"/>
<path fill="#010101" opacity="1.000000" stroke="none" 
	d="
M215.940979,196.321503 
	C217.125473,195.374680 218.253387,194.749939 219.764786,194.191223 
	C220.428604,193.839554 220.708923,193.421890 220.989258,193.004227 
	C220.989258,193.004227 221.007935,192.521942 221.281357,192.192871 
	C222.038589,191.579239 222.522400,191.294647 223.006195,191.010040 
	C224.137741,190.414337 225.269287,189.818649 226.700714,189.109955 
	C227.444870,188.995163 227.889130,188.993378 229.040344,188.994385 
	C230.494888,189.006790 231.242462,189.016403 231.990036,189.026016 
	C231.990036,189.026016 231.981049,189.506516 231.717651,189.893219 
	C230.219543,196.703949 233.871185,200.951691 238.003723,204.985245 
	C242.511261,205.658310 247.005310,206.452408 251.531693,206.956192 
	C253.998138,207.230713 256.519409,207.012711 259.477173,207.018539 
	C254.379135,207.509338 248.819839,207.998428 243.260559,208.487518 
	C243.229935,208.717865 243.199326,208.948196 243.168716,209.178543 
	C248.447342,209.573318 253.725952,209.968079 258.534058,210.327667 
	C250.362915,216.085419 241.906769,222.044006 233.773392,227.775146 
	C232.461411,224.139709 230.916138,220.428177 229.784851,216.594482 
	C227.913635,210.253265 222.727325,208.600647 217.249847,207.212677 
	C215.809189,206.847641 214.057632,206.839432 213.015549,205.980118 
	C211.534286,204.758621 210.577133,202.901535 209.396057,201.316010 
	C210.743103,200.401535 212.105438,199.508575 213.431656,198.564835 
	C214.276947,197.963364 215.068649,197.286621 215.940979,196.321503 
z"/>
<path fill="#0C0D0F" opacity="1.000000" stroke="none" 
	d="
M183.697968,250.711380 
	C184.118286,250.290192 184.593536,250.086243 185.068787,249.882294 
	C185.144409,250.176727 185.220047,250.471176 185.295670,250.765625 
	C184.781418,250.819962 184.267181,250.874283 183.697968,250.711380 
z"/>
<path fill="#010101" opacity="1.000000" stroke="none" 
	d="
M218.409256,154.425095 
	C218.196030,154.608551 217.936401,154.676620 217.676788,154.744705 
	C217.905487,154.599716 218.134186,154.454712 218.409256,154.425095 
z"/>
<path fill="#010101" opacity="1.000000" stroke="none" 
	d="
M318.011658,310.007843 
	C313.475891,307.339264 308.894012,304.744141 304.438232,301.948059 
	C303.387085,301.288452 302.552063,300.057922 301.970673,298.911041 
	C295.760132,286.660706 297.491302,272.868408 306.740387,262.220642 
	C308.215668,263.492126 309.423248,264.961609 310.897949,267.070740 
	C312.204803,272.442444 314.033752,277.166199 314.083191,281.908569 
	C314.144073,287.739899 317.926270,294.767578 323.083374,295.870758 
	C330.338837,297.422729 338.087067,293.518250 339.736298,287.478973 
	C341.514221,280.968384 338.187561,273.453461 331.690857,271.926147 
	C323.747742,270.058777 322.113312,264.763885 321.937195,257.975555 
	C324.831085,257.187347 327.725006,256.399109 330.809143,255.301819 
	C342.763306,256.731628 350.475586,263.577393 354.990967,274.274506 
	C355.503418,275.488525 354.872009,277.138733 355.063629,278.546844 
	C355.293518,280.236389 355.818115,281.888306 356.255890,283.545685 
	C356.406189,284.114746 356.975403,284.730377 356.852570,285.191284 
	C354.149811,295.334991 351.007263,305.400177 340.222809,309.866364 
	C336.192780,311.535339 331.531281,311.679474 327.260925,312.499054 
	C327.332367,312.220795 327.480377,311.644318 327.628418,311.067871 
	C324.661560,310.718781 321.694672,310.369659 318.363892,310.010101 
	C318.000000,309.999634 318.011658,310.007843 318.011658,310.007843 
z"/>
<path fill="#121112" opacity="1.000000" stroke="none" 
	d="
M321.650146,257.878296 
	C322.113312,264.763885 323.747742,270.058777 331.690857,271.926147 
	C338.187561,273.453461 341.514221,280.968384 339.736298,287.478973 
	C338.087067,293.518250 330.338837,297.422729 323.083374,295.870758 
	C317.926270,294.767578 314.144073,287.739899 314.083191,281.908569 
	C314.033752,277.166199 312.204803,272.442444 311.082520,267.355225 
	C311.165009,266.711761 311.261963,266.261719 311.505157,266.159515 
	C315.370056,264.535034 319.723816,263.404236 319.431213,257.828369 
	C320.075165,257.812561 320.719116,257.796783 321.650146,257.878296 
z"/>
<path fill="#0C0D0F" opacity="1.000000" stroke="none" 
	d="
M238.069153,204.643005 
	C233.871185,200.951691 230.219543,196.703949 231.713745,190.133484 
	C234.884491,191.491547 237.842072,192.914749 240.686844,194.535934 
	C242.045715,195.310333 244.296631,196.604706 244.191757,197.409042 
	C243.999649,198.881958 242.440720,200.239838 241.296829,201.505692 
	C240.359528,202.542923 239.197174,203.376770 238.069153,204.643005 
z"/>
<path fill="#0C0D0F" opacity="1.000000" stroke="none" 
	d="
M231.874329,188.770538 
	C231.242462,189.016403 230.494888,189.006790 229.373535,188.990875 
	C229.919388,188.828064 230.839005,188.671570 231.874329,188.770538 
z"/>
<path fill="#010101" opacity="1.000000" stroke="none" 
	d="
M280.103271,199.057510 
	C280.152405,198.992599 280.322571,198.993683 280.748108,198.996506 
	C281.003418,198.998260 280.626312,199.154236 280.626312,199.154236 
	C280.626312,199.154236 280.224365,199.123520 280.103271,199.057510 
z"/>
<path fill="#0A0B0D" opacity="1.000000" stroke="none" 
	d="
M296.998840,236.000702 
	C296.997650,236.001404 296.962006,235.933716 296.981689,235.965775 
	C297.001343,235.997833 297.000000,236.000000 296.998840,236.000702 
z"/>
<path fill="#010101" opacity="1.000000" stroke="none" 
	d="
M317.995850,309.993744 
	C317.991699,309.987854 317.939850,310.043243 317.975769,310.025543 
	C318.011658,310.007843 318.000000,309.999634 317.995850,309.993744 
z"/>
<path fill="#0B0C0E" opacity="1.000000" stroke="none" 
	d="
M222.800171,190.916153 
	C222.522400,191.294647 222.038589,191.579239 221.286652,191.951614 
	C221.543732,191.633698 222.068939,191.227966 222.800171,190.916153 
z"/>
<path fill="#0B0C0E" opacity="1.000000" stroke="none" 
	d="
M220.817230,193.154739 
	C220.708923,193.421890 220.428604,193.839554 220.082809,194.112457 
	C220.212906,193.733856 220.422195,193.513046 220.817230,193.154739 
z"/>
</svg>